/* XPM */
static char *result[] = {
/* columns rows colors chars-per-pixel */
"64 64 254 2 ",
"   c #130A00",
".  c #180902",
"X  c #240C00",
"o  c #2E1103",
"O  c #34211B",
"+  c #4F1711",
"@  c #671C11",
"#  c #462B13",
"$  c #513D15",
"%  c #693F0A",
"&  c #493829",
"*  c #5C4717",
"=  c #6A4812",
"-  c #785419",
";  c #4E4431",
":  c #6C5626",
">  c #775824",
",  c #6F5232",
"<  c #7C6439",
"1  c #5A4D42",
"2  c #6C584A",
"3  c #745745",
"4  c #745A54",
"5  c #796746",
"6  c #767048",
"7  c #7A6A58",
"8  c #7C7063",
"9  c #982D2A",
"0  c #864D0B",
"q  c #88560B",
"w  c #945B0A",
"e  c #885A15",
"r  c #905511",
"t  c #9B630D",
"y  c #8B6219",
"u  c #9A691A",
"i  c #A66A0C",
"p  c #AF730E",
"a  c #A36917",
"s  c #AA761B",
"d  c #B87B17",
"f  c #855B26",
"g  c #8E5735",
"h  c #A8473B",
"j  c #89682C",
"k  c #9B6D24",
"l  c #976B29",
"z  c #9A7229",
"x  c #866938",
"c  c #956938",
"v  c #997637",
"b  c #9A753A",
"n  c #A36720",
"m  c #AC7B23",
"M  c #A77728",
"N  c #B47C25",
"B  c #A96C31",
"V  c #A67636",
"C  c #A47B33",
"Z  c #B77C33",
"A  c #B64B47",
"S  c #866D47",
"D  c #976B4E",
"F  c #8A7548",
"G  c #977746",
"H  c #9D7C43",
"J  c #8A7659",
"K  c #997D56",
"L  c #A57947",
"P  c #AE7551",
"I  c #886E66",
"U  c #887965",
"Y  c #947869",
"T  c #957B73",
"R  c #AB786B",
"E  c #C54645",
"W  c #CF5251",
"Q  c #E04649",
"!  c #CA7E70",
"~  c #B7821A",
"^  c #AD822E",
"/  c #B5832C",
"(  c #BC842B",
")  c #BC8828",
"_  c #AA8538",
"`  c #BC8A33",
"'  c #B78839",
"]  c #BD9136",
"[  c #C38518",
"{  c #CD8C1B",
"}  c #D78F1A",
"|  c #D48E1C",
" . c #CE9217",
".. c #CD921B",
"X. c #D39216",
"o. c #D3921C",
"O. c #D9921D",
"+. c #D2981F",
"@. c #C38425",
"#. c #C48B24",
"$. c #CB8D24",
"%. c #C48C2B",
"&. c #CB8D2B",
"*. c #D38E22",
"=. c #D98E24",
"-. c #D28E2B",
";. c #CD9223",
":. c #C59128",
">. c #CD932C",
",. c #D39222",
"<. c #D99222",
"1. c #D3932B",
"2. c #D7962B",
"3. c #C38C37",
"4. c #C59233",
"5. c #CB9334",
"6. c #C8953C",
"7. c #D29433",
"8. c #D39832",
"9. c #D2973A",
"0. c #9E8149",
"q. c #9B8159",
"w. c #A88548",
"e. c #B58A45",
"r. c #BD974E",
"t. c #A78856",
"y. c #B88757",
"u. c #BD9957",
"i. c #998667",
"p. c #92856D",
"a. c #988775",
"s. c #A58B65",
"d. c #AA9269",
"f. c #B79765",
"g. c #A8877A",
"h. c #B88674",
"j. c #AA9478",
"k. c #B79977",
"l. c #BCA16F",
"z. c #BBA67A",
"x. c #C89844",
"c. c #CC9350",
"v. c #C59854",
"b. c #CEA457",
"n. c #C48C67",
"m. c #D69673",
"M. c #C9A668",
"N. c #D6AC6E",
"B. c #C8A778",
"V. c #DCB57A",
"C. c #ECBD6B",
"Z. c #E9BD74",
"A. c #EAC17D",
"S. c #9B9285",
"D. c #9C9B97",
"F. c #A79C86",
"G. c #AE9289",
"H. c #B39C84",
"J. c #B79B93",
"K. c #ABA68D",
"L. c #B5A586",
"P. c #ABA593",
"I. c #B5A795",
"U. c #BBB19A",
"Y. c #B6A9A5",
"T. c #B8B4A9",
"R. c #BAB8B9",
"E. c #CF988C",
"W. c #E49183",
"Q. c #C4A98B",
"!. c #DAA78C",
"~. c #C8B287",
"^. c #D5BA8B",
"/. c #C6A798",
"(. c #D6A89A",
"). c #C5B697",
"_. c #D3BC97",
"`. c #E3A78A",
"'. c #E3BC87",
"]. c #E4AB98",
"[. c #F4AF9E",
"{. c #EBB59B",
"}. c #DBACA5",
"|. c #C8B9A7",
" X c #D7B8A7",
".X c #C5BCB4",
"XX c #E4ADA2",
"oX c #E9B5A8",
"OX c #F3B6A5",
"+X c #F7B8A4",
"@X c #F5B6AC",
"#X c #FAB4AD",
"$X c #F4BBAC",
"%X c #FAB9AD",
"&X c #ECBCB1",
"*X c #FAB6B1",
"=X c #F4BBB2",
"-X c #FABBB1",
";X c #D3C398",
":X c #E9C78C",
">X c #F7CC89",
",X c #F8D38C",
"<X c #E7C998",
"1X c #F8CE96",
"2X c #F7D596",
"3X c #FCD294",
"4X c #FCD39A",
"5X c #DAC8A8",
"6X c #CBC3B7",
"7X c #D6CEB6",
"8X c #D7C9B8",
"9X c #D4CCBC",
"0X c #F8D9A5",
"qX c #F8C3B4",
"wX c #E5D6BA",
"eX c #FAE8BE",
"rX c #C9C8C7",
"tX c #D5CCC3",
"yX c #D9CAC9",
"uX c #CFD2CC",
"iX c #DAD4C5",
"pX c #DDD4CB",
"aX c #D9D7D3",
"sX c #E5DAC9",
"dX c #E5DDD4",
"fX c #ECE3CA",
"gX c #F5E5C4",
"hX c #FCE6C5",
"jX c #F2E5CB",
"kX c #F9E8C8",
"lX c #FDEACD",
"zX c #EBE5D9",
"xX c #F3EAD5",
"cX c #FDECD6",
"vX c #F3ECDC",
"bX c #FBF3DA",
"nX c #E6E5E5",
"mX c #EEEAE4",
"MX c #EDEDEC",
"NX c #EFEFEE",
"BX c #F3ECE3",
"VX c #F9EEE4",
"CX c #F2EDEB",
"ZX c #F7F5E7",
"AX c #F5F2EC",
"SX c #FBF6EC",
"DX c #FEFAED",
"FX c #F6F4F3",
"GX c #FAF5F3",
"HX c #F5FBF5",
"JX c #FCFCF5",
"KX c #FDF6FA",
"LX c #F6FEFC",
"PX c #FEFEFE",
/* pixels */
"PXPXPXPXPXPXPXPXPXPXPXPXPXLXLXLXPXPXPXKXKXyXa.Y g.sXGXPXPXKXPXPXPXPXPXLXLXPXPXPXPXPXPXPXPXPXPXPXPXPXPXPXPXPXPXPXPXPXPXPXPXPXPXPX",
"PXPXPXPXPXPXPXPXPXPXPXPXPXPXPXPXPXPXJXJXY.T J.}.(.g.6XPXPXPXKXPXKXPXJXLXPXJXPXPXPXPXPXLXPXPXPXPXPXPXPXPXPXPXPXPXPXPXPXPXPXPXPXPX",
"PXPXPXPXPXPXPXPXPXPXPXPXPXKXPXPXKXPXKX.XI  X&X=X*XoXG.BXPXJXPXPXFXU.j.|.SXJXPXPXPXPXLXPXPXPXPXPXPXPXPXPXPXPXPXPXPXPXPXPXPXPXPXPX",
"PXPXPXPXPXPXPXPXPXPXPXPXPXPXPXPXPXPXGXY oX=X=X*X*X-XR dXLXLXPXGXi.j ' v G zXGXPXJXLXPXPXPXPXPXPXPXPXPXPXPXPXPXPXPXPXPXPXPXPXPXPX",
"PXPXPXPXPXPXPXPXPXPXPXPXPXPXPXPXPXPXpXG.=XOXOX-X*X=Xh.aXLXLXPX).% 9.;.>.' K fXJXPXLXPXPXPXPXPXPXPXPXPXPXPXPXPXPXPXPXPXPXPXPXPXPX",
"PXPXPXPXPXPXPXPXPXPXPXPXPXPXPXPXPXPX.X/.-XE.].OX=XoXg.CXLXKXdX: / <.-.>.4.C k.FXJXLXLXPXPXPXPXPXPXPXPXPXPXPXPXPXPXPXPXPXPXPXPXPX",
"PXPXPXPXPXPXPXPXPXPXPXPXPXLXPXPXKXPX.XXX-XE.! %X@X}.J.CXLXKXH.l 8.,.-.N B L 3 tXJXPXPXPXPXPXPXPXPXPXPXPXPXPXPXPXPXPXPXPXPXPXPXPX",
"PXPXPXPXPXPXPXPXPXPXPXPXPXGXPXPXPXKXT.&X#X#XD !.=X/.yXKXJXdXb 6.&.&.i n.{.OXR I JXLXPXKXPXPXPXPXPXPXPXPXPXPXPXPXPXPXPXPXPXPXPXPX",
"PXPXPXPXPXPXPXPXPXPXPXPXPXHXMXnXtX.Xa.h.m.].m.G !.(.BXJXZX/.V >.9.B E.+X+X$X=X2 zXLXLXPXPXPXPXPXPXPXPXPXPXPXPXPXPXPXPXPXPXPXPXPX",
"PXPXPXPXPXPXPXPXPXPXPXPXJXuXY.D.S.S.Y D D c L c v k.vXDXfXb ) 8.M n.=XOX+X+XqXR S.PXJXPXKXPXPXPXPXPXPXPXPXPXPXPXPXPXPXPXPXPXPXPX",
"PXPXPXPXPXPXPXPXPXPXPXPXPXAXMXAXfXbX8Xt.y.f 0 a w b d.sXf.^ 1.@.V {.$X+X+X#X-XE.8 JXPXKXPXPXLXPXPXPXPXPXPXPXPXPXPXPXPXPXPXPXPXPX",
"PXPXPXPXPXPXPXPXPXPXPXPXPXLXaXU : c l m 4.s a 5.) s 4.k m ;.7.n `.%X#X%X@X#X*X(.2 GXPXPXPXPXLXLXPXPXPXPXPXPXPXPXPXPXPXPXPXPXPXPX",
"PXPXPXPXPXPXPXPXPXPXPXPXPXLXU.$ v.) 5.1.;.~ p >.>.d ..$.-.<.@.y.qX#X#X#X*X@X-XXX2 JXLXPXPXPXPXPXPXPXPXPXPXPXJXJXPXPXPXPXPXPXPXPX",
"PXPXPXPXPXPXPXPXPXPXPXPXPXGXs.- #.-.-.7.) v l ` 1.| ,.O.} *.Z `.+X+X#X*X=XoX%X(.4 PXLXPXPXPXPXPXPXPXPXPXLXPXPXPXPXPXPXPXPXPXPXPX",
"PXPXFXNXPXPXPXPXPXPXPXPXLXvXq._ ` %.>.^ 0.5X_.V 8.o.o.} } -.c.+X+XOX#X*X@X#X-XE.8 PXLXJXJXLXPXPXPXPXPXLXPXPXPXPXPXPXPXPXPXPXPXPX",
"PXPXPXaXR.dXPXPXGXPXLXPXLXaXq.;X:X/ #.v bXDXjXw.1.X.o.} } { n.+X#XOX].@X#X#X-Xg.T PXKXLXHXPXPXPXPXPXLXPXPXPXPXPXPXPXJXPXLXLXPXPX",
"PXPXKXPXFXR.R.BXJXPXPXPXPXpXY fXB.] ^ 5XHXJX;X_ 2.X.X.| O.&.m.+X].D E.@X*X#X-X3 .XPXPXPXHXPXJXLXLXLXPXPXPXPXPXPXPXPXLXLXPXLXPXPX",
"KXKXKXKXPXKXaXT.rXMXPXLXPX9Xa.xXu._ r.bXLXZXz.] ,.| O.X.o.*.-.P c P oX*X#X#X(.2 AXKXPXPXLXPXPXPXJXPXPXPXPXPXPXPXPXPXPXPXPXPXPXPX",
"MXaXrXrXrXaXFXFXaXR.nXPXDX7XK.sXe.e.~.DXCX9Xr.>.=.=.,.X.o.*.1.@.y.].@X=X*X$XI Y.PXPXPXLXPXPXPXPXPXJXPXPXPXJXPXJXJXPXPXPXPXPXPXPX",
"JXJXFXNXuXR.D.T.nXnXR.aXJXiXU.< e v.5XDX1 : ] ,.=.| o.O.O.| | >.v.OX@X@X@XQ.I mXPXJXPXPXPXPXPXLXPXPXPXPXPXJXLXLXLXPXPXPXPXPXPXPX",
"JXPXPXPXLXPXLXuXD.R.nXT.7XiXU.* w v.wX6X. - 3.*.=.=.{ [ { ,.X.8.B `.*XoX&X7 .XPXPXJXPXPXLXzXF.iXPXPXPXPXPXLXPXJXPXPXLXJXDXJXJXLX",
"LXPXPXPXLXLXLXPXKXaXP.H.F d.z.: M u.wXS.. u s ~ p p d d $.{ o.1.B n.=X&XY Y.KXKXPXPXPXJXHXK.: 0.SXmXaXJXPXPXKXKXJXpX|.T.6XsXGXPX",
"PXPXPXPXPXPXPXLXPXBXi.x v F i.# - s.U.7 o q s ~ @.@.[ d d {  .1.Z P oXT /.KXKXPXPXPXJXPXZXi.e.z jXH.S dXPXPXKXCXa.< 6 8 S.D.aXPX",
"JXPXPXPXPXPXLXPXKX9Xx u.C ;XY a.L.5 sX5X> k / ~ p d $.$.,.| +.1.Z P H.tXDXGXVXzXVXJXDXGXxX0.3.3.B.L b 6XPXGXzX2 < 0.;XBXFXCXMXJX",
"PXPXPXPXPXJXPXPXJX|.b 6.^ hX7 2 8 ; 7XxXk.u d [ O.<.<.,...;.;.,.Z L dXSX9XF = = - 0.5XbXk.m >.d ( x.v wXLXbXF F 6 7XJXJXLXPXPXGX",
"PXPXPXPXPXPXJXPXPX|.c 4./ wX8X; 6 ).gXkX;X< w.6.%.( ` %.>.;.+.8.M Q.5Xs.> k ` 5.>.` 6.y.z 5.,...>.] z.ZXZXL.< < 8XPXPXLXLXPXPXJX",
"PXPXPXPXPXPXPXJXLXtXx x.~ B.lXwXgXgXgXgXzX, # = e.B.<X:X` ;.o.>.e H b / >.,.+.,.,.1.*.p -.>.,.,.:.r. XZXxXx x U.LXLXPXPXPXPXPXPX",
"PXPXLXPXPXPXJXPXPXCXS Z k j _.8XcXcXbXbXU . . , gXeXhXhXV.#.[ 0 t 3.6.&.,.o. .;.) w i [ ,...o.X...~ k ).L.f q.vXPXPXPXPXPXPXPXLX",
"PXPXPXPXPXPXPXPXLXPXU.- u.N.<X_.g.F.S.;   X   7 bXgXhXlX1X` t N 8...,.1.,.X.X.1.q / ..o.,.,.$.;.5.x.' d.< G /.GXPXJXJXJXPXJXPXPX",
"PXPXJXPXPXPXPXPXLXPXSXi.x M.0XkX|.O .   . X   U cXkXkXlX0X^ i 5.,.X. .,.*.O.,.#.u / #.[ :.N N C t.G q.l.x K 7XPXJXPXJXPXJXPXPXPX",
"PXPXPXPXPXPXPXPXLXLXPXvXi.H <XgXjXa.X   X o + R cXkXkXlX<XB t 7.o.X.X.,.7.N M f.~.t.w.t.K d.z.5XfXiXxX0.H s.BXPXPXPXPXPXPXLXPXJX",
"KXPXPXLXPXPXPXPXLXPXPXPXvXd.s.kXkXwX;   X + h h.lXkXeXhX~.u p *.X. .,.x.k H wXCXHXAXvXAXCXGXJXLXLXLXfXj w.K.JXJXLXPXPXPXPXPXPXPX",
"PXPXPXLXPXPXPXJXPXPXPXPXPXAXP.F.fXxXF.. + @ A ! lXkXgXkXL s =.} X.+.%.j L.DXJXPXPXPXKXKXJXLXJXPXLXLX|.C z 6XPXPXPXLXLXLXPXPXPXPX",
"PXPXPXPXPXPXPXPXPXPXPXPXPXPXJX6XP.sXsX& @ E E W.lXkXhXM.w -.=.| o.{ u 5XJXPXPXPXPXPXPXPXPXPXPXPXKXKXH.e.c BXPXGXPXPXLXJXPXPXPXPX",
"PXPXPXPXPXPXPXPXPXPXPXPXPXPXPXPXdX.XjXh.9 Q E W.lXgXz.k 4.%.o.;.1.@.u 8XPXLXLXLXPXPXPXPXJXPXPXPXPXvXq.w.w.BXiX6X.XdXFXLXJXPXPXPX",
"PXPXPXPXPXPXPXPXPXPXKXPXPXPXPXGXKXBX6XqX9 Q E [.wXs.c 6.&.b.A.>.7.>.` K KXPXPXPXPXPXPXPXJXJXKXPXKX9Xw.b B.;X;X;XQ.q.p.zXGXKXPXPX",
"PXPXPXPXPXPXPXPXPXPXPXPXPXPXKXPXGXJXdXI.P E W oXa.5Xy.x.%.Z.4Xb.@.1.7.f wXPXPXKXLXJXPXHXSXGXPXPXGX_._ G s.:X2X2X0X0X^.2 T.DXLXLX",
"PXPXPXPXPXPXPXLXLXLXPXPXPXPXPXJXPXPXPXtXG.R E.T pX7Xw.] 9.>X3XA.~ =.2.` L zXGXSXzXuX|.j.p.p.F.tXAXf.^ w.q.N.2X2X3X1X0X<XF Y.JXPX",
"PXPXPXPXPXPXPXPXPXPXPXPXPXPXPXPXJXLXJXzXp.T T 6XPX7Xl.v.N.3X3X>X#.,.=.>.m L f.e.H z z z M k y > s.e.M _.F r.>X2X>X3X4X2X<Xp.iXLX",
"PXPXPXPXPXPXPXPXPXPXPXPXPXPXPXPXLXLXaX< < I pXPXLX9Xz.<X>X3X3X3Xb.%.*.+.;.) 4.4.>.>.;.-.,.,.,.5.u e.e.gX7 ' ] ,X4X3X2X2X2XB.I.FX",
"PXPXPXPXPXPXPXPXPXPXPXPXPXPXPXPXPXGX|.j b.c ~.DXJXtXj.0X>X1X3X3X>X5.$.o.,.1.1.;.;.;.,.,.| | O.,.4.( v.jXk.N %.( >X1X4X2X>X<Xa.AX",
"PXPXPXPXPXPXPXPXPXPXPXPXPXPXKXPXGX6X0.q ~ 6.b gXZX7XK 1X2X1X3X3X3XC.4.#.>.,.*.,.,...*.<.<.,.X...,.d V y.l p <.$.( Z.4X3XA.'.j.mX",
"PXPXPXPXPXPXPXPXPXPXPXPXPXJXPXPXCXS ^ :.d ;.N f.Q.t.f V.4X2X4X4X3X1XA.6.#.$.$.o.X.o.O.o.o.O.O.X.o.#.n 3.@.d ,.O.#./ V.4X:Xd.I.CX",
"PXPXPXPXPXPXPXPXPXPXPXPXPXJXPXKXCXS M ) +.,.5.a ` x.M V 4X,X2X3X4X3X3X>XN./ d | O.X.X.O.<.*.| X.,.;.i ;...{ O.,.,.` b <X:Xi.iXPX",
"PXPXPXPXPXPXPXPXPXPXPXPXPXLXPXKXJX_.y )  .,.-.d &.-.7.0 N.,X,X2X1X3X4X1X1X' N <.o.X.o.o.X.O.| ,.;.>.a [ O.......*.w % y.5XK.HXPX",
"PXPXPXPXPXPXPXPXPXPXPXPXPXLXPXPXsXH :.) $.| ,.d N ( 7.` y ^.4X2X3X3X4X:XV s ;.*.X.X. . .o.,.*.+...>.t [ ,.O.o. .=.Z e.s.a.rXLXPX",
"PXPXPXPXPXPXPXPXPXPXPXPXPXLXLXPXsXS v ^ m >.1.~ a w z j j i.;X2X3X4X'.g s 1.,.,.o.o.o.o.*.,.,. ...>.r @.,.=.+.o.*.1.' 5XaXFXPXPX",
"PXPXPXPXPXPXPXPXPXPXPXPXPXPXPXPXFXsXiX^.= q ` x.v.c ;X5XjXiXz.<X2X<Xg M 7.*.*.,.o.o.+.O.,.,.;.+.,.@.0 &.| *.o.,.| ,.s ).HXPXPXPX",
"PXPXPXPXPXPXPXPXPXPXPXPXPXPXPXLXLXGXPXGXvX).d.x : U.DXPXGXPXvXU.;XG y 5.{ o.,.o...o.*.,.,.,.X.+.;.n q 1.X.o. ...;.8.^ z.HXLXPXPX",
"PXPXPXPXPXPXPXPXPXPXPXPXPXPXPXLXKXPXPXPXJXPXSX8XtXGXPXLXPXPXJXDXd.- 5.,.o.o.o.o.o.o.O.*.| o.o.;.4.0 M 8.<.,.,.8.9.6.y 6XLXLXPXPX",
"PXPXPXPXPXPXPXPXPXPXPXPXPXPXLXPXPXPXPXPXLXLXPXPXJXJXPXPXPXPXPXxX: Z ;.,.o.o.o.,.,.O.X.,.O.o.,.9.e % ^ M s p m M k - i.ZXGXPXPXPX",
"PXPXPXPXPXPXPXPXPXPXPXPXPXPXPXLXPXPXPXPXPXLXPXPXPXPXPXLXLXHXPXU.q 7.,. .O.X.o.X.-.,.o.O.O.*.x.y # U._.).L.i.J 5 J Y.ZXJXPXPXPXPX",
"PXPXPXPXPXPXPXPXPXPXPXPXPXPXPXPXPXPXPXPXPXPXPXPXPXPXPXPXPXHXJXY M 2.,.+...o.X.O.$.,.o...1.3.- $ zXPXLXPXPXPXPXPXPXPXPXPXPXPXPXPX",
"PXPXPXPXPXPXPXPXPXPXPXPXPXPXPXPXPXPXPXPXPXPXPXPXPXPXKXPXPXPXPXa.s 1.=.O.X.| O.} ,.o.,.%.k - p.mXJXPXPXPXPXPXGXPXPXPXPXPXPXPXPXPX",
"PXPXPXPXPXPXPXPXPXPXPXPXPXPXPXPXPXPXPXPXPXPXPXPXPXPXPXKXPXJXPX|.q 5.-.=.1.,.*.*.,.&.M j Y 6XZXPXHXPXPXPXPXPXPXPXPXPXPXPXPXPXPXPX",
"PXPXPXPXPXPXPXPXPXPXPXPXPXPXPXPXPXPXPXPXPXPXPXPXPXPXPXPXPXGXDXbXw.m ;.=.,.,.,.$.4.j d.dXFXPXPXLXLXPXJXPXPXPXPXPXPXPXPXPXPXPXPXPX",
"PXPXPXPXPXPXPXPXPXPXPXPXPXPXPXPXPXPXPXPXPXPXPXPXPXLXJXJXGXsXs.H _ q #.,.O.} X.[ l 5XJXPXPXPXPXPXPXPXKXPXPXPXPXPXPXPXPXPXPXPXPXPX",
"PXPXPXPXPXPXPXPXPXPXPXPXPXPXPXPXPXPXPXPXPXPXPXPXPXPXLXPXAXj.L M ) ] [ | O.O.| [ e._.DXPXJXPXLXPXJXPXPXPXPXPXPXPXPXPXPXPXPXPXPXPX",
"PXPXPXPXPXPXPXPXPXPXPXPXPXPXPXPXPXPXPXPXPXPXPXPXPXPXPXPXBXd.c i :.:.;.,.} } | ,.6.t.zXJXPXLXPXPXJXPXPXPXPXPXPXPXPXPXPXPXPXPXPXPX",
"PXPXPXPXPXPXPXPXPXPXPXPXPXPXPXPXPXPXPXPXPXPXPXPXPXPXPXPXGX|.- 3.;.+.+.O.| o.O.{ x.q.nXHXLXPXPXPXPXPXPXPXPXPXPXPXPXPXPXPXPXPXPXPX",
"PXPXPXPXPXPXPXPXPXPXPXPXPXPXPXPXPXPXPXPXPXPXPXPXPXPXPXLXHXZXF Z 5...| ,.=.;.1.6.f L.GXLXLXPXPXPXPXPXPXPXPXPXPXPXPXPXPXPXPXPXPXPX",
"PXPXPXPXPXPXPXPXPXPXPXPXPXPXPXPXPXPXPXPXPXPXPXPXPXPXPXPXPXGX|.< C ) ;.>.%.N z g I.SXLXPXPXPXPXPXPXPXPXPXPXPXPXPXPXPXPXPXPXPXPXPX",
"PXPXPXPXPXPXPXPXPXPXPXPXPXPXPXPXPXPXPXPXPXPXPXPXPXPXPXPXPXJXJX9Xd.F j j x K L.sXPXPXPXPXPXPXPXPXLXPXJXPXPXPXPXPXPXPXPXPXPXPXPXPX",
"PXPXPXPXPXPXPXPXPXPXPXPXPXPXPXPXPXPXPXPXPXPXPXPXPXPXPXPXJXPXPXLXFXBXzXxXmXFXLXLXJXPXPXPXKXKXPXPXLXPXJXPXPXPXPXPXPXPXPXPXPXPXPXPX"
};
