/* XPM */
static char *result[] = {
/* columns rows colors chars-per-pixel */
"64 64 245 2 ",
"   c #1E5A79",
".  c #215B6E",
"X  c #345B6C",
"o  c #255B74",
"O  c #295D7A",
"+  c #0D617F",
"@  c #186779",
"#  c #1C637C",
"$  c #276575",
"%  c #23627C",
"&  c #2B627E",
"*  c #246C7D",
"=  c #2C6A7B",
"-  c #33647C",
";  c #386779",
":  c #336A7D",
">  c #20707F",
",  c #55686A",
"<  c #44687B",
"1  c #536C77",
"2  c #57727B",
"3  c #667C7A",
"4  c #185E85",
"5  c #2A5C84",
"6  c #375A81",
"7  c #0E6B8B",
"8  c #1C6584",
"9  c #156B84",
"0  c #1C6B85",
"q  c #14648C",
"w  c #1A668C",
"e  c #156D8D",
"r  c #1C6B8B",
"t  c #0C728E",
"y  c #14718C",
"u  c #1A718E",
"i  c #0E6D96",
"p  c #156692",
"a  c #146D94",
"s  c #1C6B93",
"d  c #156C9A",
"f  c #1B6D9B",
"g  c #0D7197",
"h  c #137295",
"j  c #1B7295",
"k  c #14719B",
"l  c #1B719B",
"z  c #236584",
"x  c #2B6583",
"c  c #246A85",
"v  c #2B6A84",
"b  c #23658B",
"n  c #2B658B",
"m  c #226B8C",
"M  c #2A6B8B",
"N  c #336686",
"B  c #326C84",
"V  c #3C6D84",
"C  c #326C8B",
"Z  c #287288",
"A  c #38768A",
"S  c #226B93",
"D  c #266B94",
"F  c #366C91",
"G  c #287492",
"H  c #23729B",
"J  c #247399",
"K  c #367994",
"L  c #186EA2",
"P  c #0B73A2",
"I  c #1571A1",
"U  c #2971A0",
"Y  c #456A86",
"T  c #477589",
"R  c #447C93",
"E  c #4B7B90",
"W  c #547B93",
"Q  c #637C84",
"!  c #6A7C84",
"~  c #727E81",
"^  c #3F808E",
"/  c #3E85A7",
"(  c #5D838B",
")  c #468297",
"_  c #558499",
"`  c #5C8A9D",
"'  c #57919F",
"]  c #6B848D",
"[  c #68898A",
"{  c #74898B",
"}  c #678794",
"|  c #748C93",
" . c #788D97",
".. c #6A9294",
"X. c #789399",
"o. c #4B84A5",
"O. c #588AA4",
"+. c #5993A0",
"@. c #5993AB",
"#. c #668DA2",
"$. c #6895A8",
"%. c #7797A7",
"&. c #7E9AA3",
"*. c #649BB3",
"=. c #739FB5",
"-. c #7C9DB3",
";. c #7AA3AA",
":. c #6CA2B5",
">. c #78A5B6",
",. c #73A5BC",
"<. c #7FB5BE",
"1. c #72AEC7",
"2. c #859699",
"3. c #889299",
"4. c #87A59B",
"5. c #849BA3",
"6. c #8C9DA3",
"7. c #879BAA",
"8. c #929FA6",
"9. c #859EB0",
"0. c #82A1A5",
"q. c #85A5A9",
"w. c #8BA4AC",
"e. c #8DABAB",
"r. c #93A6AA",
"t. c #96B1AC",
"y. c #83A5B4",
"u. c #8AA5B3",
"i. c #87ABBA",
"p. c #9BAEB2",
"a. c #92ABB8",
"s. c #8CB3BD",
"d. c #94B4BD",
"f. c #9BB6B9",
"g. c #9CB4BB",
"h. c #A3ABB2",
"j. c #A3B5BB",
"k. c #A5B7BA",
"l. c #B0B9B9",
"z. c #A5C3BC",
"x. c #81AEC0",
"c. c #88B6C6",
"v. c #9AB9C5",
"b. c #86B9D3",
"n. c #9ABFD8",
"m. c #A5BBC2",
"M. c #ADBDC3",
"N. c #A8B8C7",
"B. c #A4BDCB",
"V. c #B4BDC7",
"C. c #9BC2CB",
"Z. c #9AC4D5",
"A. c #ACC2C4",
"S. c #A4C4CC",
"D. c #ABC5CC",
"F. c #A8C8C9",
"G. c #B4C4CB",
"H. c #B8C8C8",
"J. c #AACDD4",
"K. c #A8C8D8",
"L. c #B4CCD3",
"P. c #B6CBD5",
"I. c #ACD1DC",
"U. c #BBD2D5",
"Y. c #B8D6DA",
"T. c #9CCEE3",
"R. c #ABD9E7",
"E. c #B4D4E3",
"W. c #BEDCE4",
"Q. c #B6DAEB",
"!. c #BEE3EB",
"~. c #B8F2F8",
"^. c #C2CACC",
"/. c #C3CED5",
"(. c #C3D3D5",
"). c #C5D5DA",
"_. c #CBD5D9",
"`. c #CBDBDC",
"'. c #D3D8DC",
"]. c #C6E1DD",
"[. c #ECEFDD",
"{. c #C4DCE3",
"}. c #CADFE3",
"|. c #CFDFED",
" X c #D8DEE8",
".X c #C6DBF0",
"XX c #C5E2E5",
"oX c #CEE3E4",
"OX c #C4E3EC",
"+X c #CBE4EB",
"@X c #CBEBEE",
"#X c #D3E2E4",
"$X c #DBE2E5",
"%X c #D3E6EA",
"&X c #DBE7EA",
"*X c #D4EBED",
"=X c #DBEAEC",
"-X c #D9F5EA",
";X c #C6E4F2",
":X c #CDEBF2",
">X c #D6E8F5",
",X c #D4ECF4",
"<X c #DBEDF2",
"1X c #C9F3F7",
"2X c #D5F2F4",
"3X c #DDF3F5",
"4X c #DCF5FB",
"5X c #D8F9F9",
"6X c #DCFCFE",
"7X c #EAECE4",
"8X c #E4E6E9",
"9X c #E3EBEC",
"0X c #EDEDED",
"qX c #F4EAEB",
"wX c #F2EDEC",
"eX c #E5F3EE",
"rX c #ECF2ED",
"tX c #EAFBED",
"yX c #F4F6E7",
"uX c #F3F3ED",
"iX c #FAF3ED",
"pX c #F4FAED",
"aX c #E4EDF3",
"sX c #ECEEF2",
"dX c #E8EDF9",
"fX c #F3EDF3",
"gX c #F5E9F7",
"hX c #FAEDF5",
"jX c #FBEDFC",
"kX c #E3F3F5",
"lX c #ECF4F4",
"zX c #E6FBF5",
"xX c #EDFAF5",
"cX c #E4F4FA",
"vX c #ECF5FB",
"bX c #E4FBFD",
"nX c #EBFCFD",
"mX c #F4F4F4",
"MX c #FAF5F4",
"NX c #F5FAF5",
"BX c #FAFAF5",
"VX c #F3F5FA",
"CX c #FBF5FB",
"ZX c #F4FBFC",
"AX c #FAFBFB",
/* pixels */
"BXiXwXAXjXjXCXgXCXAXeXtXzX-XnXtXyXBXiXiXMXCXVXCXjXCXAXfXCXAX0XAXAXsXAXVX0XAXmXwXAXMXmXAXwXmXAX0XZXNXlXAXmX0XAXBX0XAXuXmXAXmXmXAX",
"BXBXMXCXCXCXCXjXVXCXmXiXNXxXxXmXiXiXiXMXAXmXVXAXCXfXCXCXAXBXmXCXCXmXMXCXVXmXMXMXCXmXCXCXmXNXAXNXVXNXNXAXmXmXAXmXmXAXZXmXCXmXAXAX",
"MXBXAXmXZXZXlXAXVXMXAXhXMXZXmXCXMXuXmX0XVXVXAXNXBXMXmXNXAXmXAXmXmXMXmXAXAXMXCXAXmXMXAXmXAXVXmXAXrXVXZXBXVXAXBXVXAXmXAXAXmXAXBXVX",
"wXmXAX9XZXNXkXZXVXgXCXgXhXCXsXZXZXVXZXZXvXxXNX7XyXBXrXNXNXmXAXmXmXAXfXBXCXwXCXAXwXmXAXmXAXmXmXAXlXNXAXVXmXAXmXMXAXmXAXmXmXAXmXmX",
"mXmXmXrXxXxXxXNXVXgXjXCXjXAXvXvXcX4X4X3X*XxXNXpX[.BXxXNXNXtXNXmXAXBXMXMXMXMXMXMXMXmXAXCXMXVXNXNXmXmXmXmXZXMXmXAXAXmXNXmXmXAXmXAX",
"AXVXrXBXpXyXpXmXvXZXZXvX|.G.v.-.$.$.#.` d.bXxXBX[.pXNXtXlXNXrXNXNXwXAXMXwXAXmXfXAXmXmXAXmXmXAXfXBXAXmXAXAXmXAXAXmXAXmXmXAXmXBXAX",
"AXVXVXAXuXiXMXCXaXnX@Xi.W ; B z 8 z z o i.nXlXBXuX7XNXeXlXxXtXAXmXmXmXAXmXBXMXfXAXmXmXAX0XmXAX0XAXMXmXAXAXwXAXAXsXAXMXmXAXmXVXAX",
"vXAXmXiXAXMXMX$XnX!._ $ Z * 0 e k l S o Z.nXvXVXmXZXH.oXnXnX$XkXvXVXVXAXmXVXVXmXAXAXAXAXmXAXmXAXZXmXmXmXmXZXmXmXMXmXVXAXmXmXBXmX",
"0XAXfXqXCXCXVXZX{.< * 0 @ > t g P P s o E.nXZXVXdX'.3 (.zX^.3.kXZX9X9X$XAXlXNXAX9XAXmX7XAXmXmXAX0XmXAXmXmXAXmXmXAXmXAXAXmXMXAX7X",
"mXMXCXCXVXvXcXD.< B ' K y y g g P P s V :XdXAXvXvX6.t.bX%X{ k.3X*Xr.U.nX=X%XxXZXlXmXmXsXAXmXmXMXmXMXCXMXmXmXmXmXCXmXmXmXmXmXVXVX",
"BXMXmXnXnX4XC.T = +.~.b.  r i g I d z T nXlXlXnX{. .*XcXk.2.<XnXk.{ =XkX2.j.xX0XAXVXAXAXrXmXCX0XAXCXwXAXAXmXAXmX0XAXmXmXAXmXmXAX",
"iXMXlXbX5XZ.A v v $.6XZ.5 n s d L s O ( ZXmXlXnX&.d.nX4X2 XXbX}.1 {.nXk.2 3XZXl.8XuXlXAXmXVXCXmXMXCXfXAXmXmXAXmXrXAXmXmXAXMXmXAX",
"iXMXZXnXR.A 9 + S o.Q.1.5 D s s S S o q.NXrXzX@XT 4XvX7.w.cXcX .t.nX}.2 {.bXU., ^.NXVXlXmXmXmXAXwXMXAXwXfXAXmXuXAXlXVXmXVXNXNXmX",
"7XNXCX>XT 0 h i d U / K 0 a a s b c $ v.ZXVXbX;.a.ZX>XQ }.ZX).Q 9XzXu.u.nX:X| A.vXlXM.V.AXmXmXvXCXMXmX0XVXMXwXMXBXrXZXlX9XvXmXrX",
"zXVXVXvXT z d P L p w r y k d p b v * J.AXVX*X[ >XvXN.X.nXlXr.v.NX}. .}.nXv.7.kX3X`.] ).VXCXVXlXBXmXVXAX8XAXMXBXrXZX%Xp.=XlXBXrX",
"NXVXVXAX;.z l g L L j y y h k f S c * !.ZXAXH.[ ZXdX7.P.bX X .=XnXm.a.4X2XX.U.bXkXX.h.NX3X>XlXsXlXNXmXAXAX7XAXkXkX%XX.1 cXxXmXBX",
"NXNXAXVX;XB r d d f f e 7 i k d S r ^ ~.cXVXp.z.AX$X%.<X4XD.r.cX4X5.U.4XE.X.>XbXW.{ <XZX%X .'.VXzXZXmXMXAXmXnXnX+X( X 7.nXcXMXAX",
"uXBXAXaXkXO.0 j L l a a j a k a S s / 1X4X<X2.].ZXG.u.cXcXi.L.bX{.5.&XbX%.m.nXbX[ S.ZXkXX.5.dXsXkXlXMXMX7XZXnXOXW - - I.bXZXuXuX",
"7XiXAX9XnXc.v r f d d d j j s p H q G ,.I.Y.q.2XbXv.S.bX<X#.%XZXi.g.lX%X! >XcXU.( ,XnXg.! #XnX9X2.9XAXuXrXZXOX#.5 n V OX4XvXmXwX",
"BXMXuXAXZXE.T n s h h 7 j w u s d H S n v _ :.1X1X=.W.4XJ.y.bXxX} Y.AX8.r.nXnXQ P.bX:X1 {.cX=X! 3.NXVXBXmXnXx.5 K 5 O.2XnXlXAXMX",
"AXmXmXNXZX,X$.x m a d d s m 0 w a w b D %   & O.1.*.;XbX&.C.zX`.} cXlX~ (.AX(...vXbXs.w.cXcXg.{ mXmXtXNXlXW.R D 4 M =.4XnXVXAXCX",
"MXmXNXNXxXZXB.- r e h f m b m w S S =.@.) v 5 5 S K :.K.( !.6X6.a.nX(.~ nXlXr.k.ZX*X..XXnX`.] ).CXmXlXxXvX1.v G p M Z.bXvXmXBXCX",
"gXmXVXtXZXZX>XW # u k s D s D w r C R.:XR.+.E 6 w c = - V c.Q._ ;XbXa.j.ZX X2.%XxXD.;.3XbXt.e.nX9XfXZXnXXXA D p J C E.cX0XCXMXmX",
"gXCXxXtXAXVXvXa.# r e p D S s q m R {.bX5Xy.P.B.) % % c M . A C Q.1X%.oXaXU.5.zX3X6.F.nX3X{ `.lXAXmXNXnX;.% D s S o.:XlX7XMXMXfX",
"CXVXnXNXBXmXZX,X^ 0 e s S L d q G ` =X=X-X4._.AXc.1.:.j 9 v b D $ _ O.@XcXv.N.vX-X..#XnXz.q.cXsXZXmXmXOXV c s s D ,.4XNXiXiXMXCX",
"AXVXlXNXBXmXAXnX1.v m m f I f p c #.sXzX-X4.'.BX>.C.6X:.*.$.M m ; O b _ c.*.E.bXJ.q.zXbX{ H.AX7XNXxXnX>.8 r j e C c.vXMXBXiXMXAX",
"hXCXmXBXBXiXmXZX2X` % r j I L w O -.vXvX3Xr. XAX;.J.6X;.J.:X:.O.T - b % c G @.C.$.C.6XY.] lXuXwXNXxXW.T r h g y ; P.CXMXBXpXNXmX",
"fXMXAX7XBXMX0XsXZXE.V c j k l m v x.ZXZXkXq.'.AX;.Y.vXw.F.bXs.T.:X-.C N % Z * Z = 1.~.$.m.vXsXAXkXcXd.M s h t 0 T |.AXCXyXNXAXrX",
"fXmXBXuXNXBXMXsXnXbXb.B 8 H q D K v.vXnXkXw.}.AX;.L.ZXw.M.nXu.R.vXn.b.Z._ v * . > @ ^ = R.cXvXvXvX>XW 5 s h t 9 ` cXCXMXiXBXBXmX",
"AXZXlXAXuXuXMXMXZXnX5Xi.= m m v = P.ZXvX3Xe.`.AX;.H.AX3.G.ZXa.E.vXN.E.nXK.$.,.A * 0 > @ : ` v.W.6XZ.F D s h t @ >.ZXCXiXBXpXmXAX",
"AXmXlXNXrXuXBX7XCXZXcX<Xc.M v = ; +XVXvXkXe.(.ZXi.F.ZXr.m.ZXg.K.lXN.K.nXJ.a.6XK._ @.A $ $ = - R 1./ f s H a a @ K.ZXCXMXpXNXVXAX",
"ZXvXZXrXpXNXwXMXqXVXsXnX4X1.B ; T ,XZXvXzXe.(.ZXs.z.ZXf.j.ZXg.S.ZXV.B.ZX).u.nXN.-.1XC.A ^ . $ M r l p q H 7 u 5 ;XvXCXBXyXmXAXCX",
"sXNXZXtXZXMXqXAXMXiXAXlX3X6Xs.X ( cXVXZX5Xz.V.AXf.C.ZXm.e.nXf.S.ZXG.B.nX#Xu.ZXV.2.bXC.s.1X<.) = @ j h l w j 9 R bXdXCXiX7XNXAXgX",
"VXZXZXvXNXAXMXMXMXiXBXNXvXbX5Xm.0.lXmXlXnXA.j.CXC.d.nXF.0.nXf.v.ZXl.B.ZX`.e.nX^.X.bXF.>.6X6X:XZ.@.D S s a u 8 O.nXVXMXpXtXNXCXCX",
"AXZXNXZXZXNXAXhXCXMXuXBXNXcXkXvXoXAXMX0XZXU.8.gXY.e.nXJ.X.nXv.c.ZXM.B.nX}.0.bXU...bXJ.X.bX3XbXnXQ.N D S a r   1.nXCXmXyXNXlXAXCX",
"AXAXlXZXZXvXAXgXCXMXuXBXNX0XZXlXtXBXuXNXxXoX3. X@X;.5XOX[ bXD.y.ZXL.B.nX+X0.2XXX[ 5XY.{ nXZXZXdX.XY n m s w z n.ZXCXMXuXBXlXCXCX",
"MXMXmXZXZXZXVXCXCXMXMXpXiXAXmXrXNXwXiXAXzX-Xh.'.-XX.*X4X] *XY.$.CX/.v.nX<X9.,X2X] 2XoX] VXsXVXVX<XT z m r r v Q.CXCXMXpXtXxXCXjX",
"qXMXCXlXZXZXvXAXCXhXBXiXuXMXqXBXNXiXiXBXeXzX8X8XkXw.(.nX] (.OX| ZX/.a.cXkX9.+XnX! %X3X~ VXCXsXZX>XR 0 u e u v OXZXMXMXpXtXNXCXgX",
"MXMXmXVXZXmXCXmXVXMXVXNXmXuXMXAX7XBXMXuXZXVXVXAXxXh.M.ZX5.G.<X} 4X{.9.cX4Xu.`.ZX| _.bX3 &XZXCXVXcX@.e d s m R ;XZXCXuXuXVXVXCXCX",
"AXmXuXAXmXVXAXmXNXAXmXmXAXmXAXmXfXVXmXuXAXmXlXAXmX_.`.ZXl.r.cX{ P. X5.<X2Xu.Y.nX5.F.nX[ L.AXCXjXvX*.9 i d m E :XZXCXmXmXAXVXjXAX",
"VXBXAXmXmXmXmXMXmXMXAXZXBXAXmXmXAXmXmXAXmXAXmXmXBXNXlXnX#X2.3X6.p.<X&.%XbXd.L.nXm.j.nXe.e.BXMXgXnX,.9 7 l 8 _ 2XZXVXBXmXVXAXCXAX",
"mXmXAX0XAXZXmXAXNXmXAXmXmXAXmX0XAXmXAXAX0XAXmXmXAXVXlXnXvX_.vXH.{ vXr.N.nXG.k.vXU.7.5XU.{ NXCXjXvXc.r h f 8 ` kXZXlXAXCXmXAXCXCX",
"mXmXAXmXAXAXmXAXmXCXAXmXmXAXmXmXAXmXAXAXmXAXmXmXAXNXlXAXNXlXZX9X3.kXG.5.nX(.6.lX&X3.%X5X3 '.CXCXZXZ.c h f z $.kXZXmXCXMXmXCXVXmX",
"CXmXmXmXmXAXAXmXmXAXmXmXAXmXAXCXmXAXmXmXAXmXAXAXVXNXmXlXlXlXZXlX9XxX Xl.kX&X2.#X0Xr.).nX3.H.hXjXnXI.Z l s z =.cXlXBXMXMXCXVXCXAX",
"AXmX0XAXmXmXAX7XmXAXmXAXAXmXAXAX0XAXmXmXAXwXVXAX0XmXAX7XNXAX9XNXZXrXZXvXZXxXl.%XZX8XaXZX].'.MXhXVXY.A H s z >.cXlXBXiXMXAXmXAXAX",
"AXBXVXAXMXZXAXfXAXmXmXAXAXmXMXmXmXmXmXmXAXmXAXAXuXmXBXmXrXBXmXmXmXZXNXmXlXNXnXNXAXVXAXZXxXNXMXCXvX+X) s f v x.nXlXMXMXMXmXCXAXAX",
"0XmXAX0XmXMXsXAXmXmXAX0XmXmXsXAXAXmXBXAX0XMXNX0XAXAXuXAXBXrXAXrXmXAXVXlXAXlXxXxXVXCXjXvXZXNXiXMXZX,X` m f x c.nXVXuXiXAXmXmXAX0X",
"wXmXAX0XAXAXmXAXmXmXAXmXmXAXmXAXAXmXVXAX0XAXmXmXAXBXlXAXBXmXAXmXmXNXNXmXAXVXNXrXhXCXjXlXZXNXuXBXAX3X;.c S x v.nXmXwXMXMXmXmXAX0X",
"AXmXmXAXmXmXAX0XMXAXmXAXAXmXAXmXmXmXmXmXAXmXmXAXmXmXAXmXmXBXrXAXNXmXmXZXmXZXlXmXMXjXCXAXxXyXpXqXAXnXa.8 s C n.nXmXMXiXwXBXAXmXAX",
"AXZXmXAXmXmXAXmXMXZX0XAXBXmXAXmXrXCXmX0XAXmXmXAXrXmXZXsXmXZX0XZXVXmXBXAX0XNXpXpXMXjXjXAXtXuXBXqXCXnXJ.M S C K.vXAXMXiXuXAXMXMXAX",
"mXmXCXmXVXBXmXAXmXmXAXmXmXAXmXmXAXAXmXAXmXAXVXmXAXVXmXVXZXVXmXmXmXVXmXNXmXmXNXmXhXjXhXmXZXuXNXqXmXvX:XK D N K.nXZXuXMXMXMXMXmXmX",
"0XVXAX7XBXVX0XAXVXmXAXmX0XAXmXmXAXmXmXAX7XCXmXmXAXAXsXAXCXlXAXmXmXAXmXAXAXmXBXAXhXMXAXmXAXmXuXAXmXVXZX=.o V I.nXNXlXMXMX7XAXMXuX",
"mXmXCXmXNXAXmXAXmXmXAXmXmXNXmXmXVXBXmXAXmXAXAXmXAXAXmXNXmXmXAXmXmXmXmXAXAXmXmXAXmXmXAXmXAXAXmXAXBXmXZXE.N < Y.>XZXVXBXMXmXMXAXmX",
"ZXMXmXAXMXmXmXmXAXNXmXAXCXmXmXmXmXAXAXmXMXmXAXAXmXmXCXmXmXAXmXZXAXmXNXmXVXBXmXmXAXMXmXAXmXAXAXmXAXNXVXbX$.< U.cXvXZXMXMXMXMXAXCX",
"AXCXmXAXZXVXAXuXAXAXmXAXAXmXmXAX0XMXmXmXAXmXmXAXmXmXAXmXmXAXmXAXMXmXAXmXmXAXVXuXAXmXmXAXmXmXVXmXAXAXVXnXE.2 ).ZXeXBXuXMXBXmXAXAX",
"mXBXmXNXMXmXmXmXAXmXmXAXCXmXmXAXmXmXmXmXNXVXAXAXmXmXAXmXmXmXMXAXmXmXmXmXVXBXmXmXAXAXmXAXBXmXmXmXAXAXZXnX<X2./.vXmXBXiXMXMXmXAXmX",
"mXmXCXrXAXMXmXAXmXmXAXmXmXAXmXmXAXmXMXAXmXZXAXmXAXCXmXAXmXmXAXmXmXAXmXmXAXmXBXCXfXAXmXmXAXmXmXAXZXmXAXvXlX_.$XuXAXyXBXiXuXAXmXlX",
"mXmXNXmXmXmXmXmXmXmXAXmXmXMXuXVXAXmXmXAXmXmXmXmXNXmXmXAXmXmXmXmXmXAXmXMXAXZXAXNXlXBXmXmXAXMXmXmXmXmXCXlXlXmXrXmXMXuXiXBXmXNXmXsX",
"AXmXmXAXmXmXAXlXmXAXmXNXAXmXAXVXmXAXmX0XAXmXmXAXmXmXAXmXmXAXmXAXAXsXAXAXrXAXCXmXAXmXmXAXmXmXAXwXAXAXmXNXBXmXBXMXuXBXiXmXAXNXNXAX",
"MXmXAXCXmXAXmXAXCXmXmXmXAXmXAX0XmXAXmXmXMXAXmXAXMXmXmXAXmXmXmXmXAXmXmXAXmXmXmXAXAXmXmXAXmXmXZXAXmXMXMXmXMXBXiXMXMXmXNX7XNXAXlXAX",
"mXsXAX0XVXBXmXAXmXmXCXmXMXMXAX0XAXmXmXAXmXAXmXmXAXVXuXAXNXmXAXmXmXAXmXAXmXmXmXAXmXmXAXfXAXmXmXAXmXmXAXmXiXAXiXmXAXrXNXuXmXAXxXNX",
"mXmXBXmXmXAXmXmXmXmXAXmXlXAXmXmXAX0XAXAX0XmXAXmXAXAX0XZXAXmXmXmXmXAXuXVXAXmXAXAX0XAXNX0XNXMXVXAXmXmXAXwXmXAXmXMXAXuXAXAXrXAXNX0X",
"AXmXmXAXmXMXAXmXmXBXmXmXmXmXmXAXVXmXCXVXmXmXAXmXmXMXmXmXBXCXmXAXVXmXmXmXAXAXCXmXmXmXMXVXmXmXBXmXVXMXMXmXMXmXmXNXAXNXVXNXNXNXNXpX",
"AXmXmXAXmXmXAXsXBXZX0XAXAXmXAXmXuXAXmX7XAXAXmXAXmXmXAX0XmXAXmXAXAX0XAXMXrXAXmXmXAXmXmXAXmXmXAX0XAXAXmXAXAXfXAXVXsXAXVXlXNXpXNXBX"
};
