/* XPM */
static char *result[] = {
/* columns rows colors chars-per-pixel */
"64 64 106 2 ",
"   c #5B1B1B",
".  c #631E1D",
"X  c #5E2424",
"o  c #642423",
"O  c #672927",
"+  c #642C2C",
"@  c #66302F",
"#  c #6B302D",
"$  c #663333",
"%  c #693535",
"&  c #653B3B",
"*  c #6C3B3C",
"=  c #654546",
"-  c #6C4444",
";  c #6A4748",
":  c #6E4949",
">  c #724444",
",  c #744B4C",
"<  c #645154",
"1  c #6C5153",
"2  c #645558",
"3  c #655B5E",
"4  c #69595C",
"5  c #715455",
"6  c #745B5B",
"7  c #696165",
"8  c #626469",
"9  c #67696E",
"0  c #746465",
"q  c #776B6C",
"w  c #646E74",
"e  c #667177",
"r  c #62747A",
"t  c #7A7374",
"y  c #7B797B",
"u  c #805656",
"i  c #845B5B",
"p  c #895C5C",
"a  c #8D6565",
"s  c #967272",
"d  c #997676",
"f  c #9F7D7D",
"g  c #A07D7D",
"h  c #5C7E85",
"j  c #7A7E80",
"k  c #5D858E",
"l  c #578891",
"z  c #5C8C95",
"x  c #5E949D",
"c  c #64868E",
"v  c #7E8284",
"b  c #7F8A8D",
"n  c #618C95",
"m  c #65969F",
"M  c #5E99A4",
"N  c #569FAA",
"B  c #6097A0",
"V  c #629EA7",
"C  c #57A0AB",
"Z  c #5DA5B1",
"A  c #55A9B6",
"S  c #57ADBA",
"D  c #57B4C2",
"F  c #5BB7C4",
"G  c #51B8C6",
"H  c #5AB9C7",
"J  c #51BDCB",
"K  c #54C0CF",
"L  c #4FC6D6",
"P  c #4EC8D8",
"I  c #53C3D2",
"U  c #818D90",
"Y  c #A28585",
"T  c #AA8B8B",
"R  c #A99191",
"E  c #B39797",
"W  c #B49C9C",
"Q  c #85A8AC",
"!  c #87AEB2",
"~  c #88B0B4",
"^  c #8AB7BB",
"/  c #89BBBF",
"(  c #BAA5A5",
")  c #BDA8A8",
"_  c #C4B5B5",
"`  c #C8B8B8",
"'  c #8BBEC3",
"]  c #8CC7CC",
"[  c #90C7CC",
"{  c #8ECED3",
"}  c #91D8DE",
"|  c #93DDE2",
" . c #92E4EA",
".. c #93E9EF",
"X. c #93EAF0",
"o. c #CEC0C0",
"O. c #D5C8C8",
"+. c #E0D6D6",
"@. c #E4DCDC",
"#. c #E7E0E0",
"$. c #EAE4E4",
"%. c #EEE9E9",
"&. c #F1EEEE",
"*. c #F4F2F2",
"=. c #F9F7F7",
"-. c #FFFFFF",
/* pixels */
"-.-.-.-.-.-.-.-.-.-.-.-.-.-.-.-.-.-.-.-.-.-.-.-.-.-.-.-.-.-.-.-.-.-.-.-.-.-.-.-.-.-.-.-.-.-.-.-.-.-.-.-.-.-.-.-.-.-.-.-.-.-.-.-.",
"-.-.-.-.-.-.-.-.-.-.-.-.-.-.-.-.-.-.-.-.-.-.-.-.-.-.-.-.-.-.-.-.-.-.-.-.-.-.-.-.-.-.-.-.-.-.-.-.-.-.-.-.-.-.-.-.-.-.-.-.-.-.-.-.",
"-.-.-.-.-.-.-.-.-.-.-.-.-.-.-.-.-.-.-.-.-.-.-.-.-.-.-.-.-.-.-.-.-.-.-.-.-.-.-.-.-.-.-.-.-.-.-.-.-.-.-.-.-.-.-.-.-.-.-.-.-.-.-.-.",
"-.-.-.-.-.-.-.-.-.-.-.-.-.-.-.-.-.-.-.-.-.-.-.-.-.-.-.-.-.-.-.-.-.-.-.-.-.-.-.-.-.-.-.-.-.-.-.-.-.-.-.-.-.-.-.-.-.-.-.-.-.-.-.-.",
"-.-.-.-.-.-.-.-.-.-.-.-.-.-.-.-.-.-.-.-.-.-.-.-.-.-.-.-.-.-.-.-.-.-.-.-.-.-.-.-.-.-.-.-.-.-.-.-.-.-.-.-.-.-.-.-.-.-.-.-.-.-.-.-.",
"-.-.-.-.-.-.-.-.-.-.-.-.-.-.-.-.-.-.-.-.-.-.-.-.-.-.-.-.-.-.-.-.-.-.-.-.-.-.-.-.-.-.-.-.-.-.-.-.-.-.-.-.-.-.-.-.-.-.-.-.-.-.-.-.",
"-.-.-.-.-.-.-.-.-.-.-.-.-.-.-.-.-.-.-.-.-.-.-.-.-.-.-.-.-.-.-.-.-.-.-.-.-.-.-.-.-.-.-.-.-.-.-.-.-.-.-.-.-.-.-.-.-.-.-.-.-.-.-.-.",
"-.-.-.-.-.-.-.-.-.-.-.-.-.-.-.-.-.-.-.-.-.-.-.-.-.-.-.-.-.-.-.-.-.-.-.-.-.-.-.-.-.-.-.-.-.-.-.-.-.-.-.-.-.-.-.-.-.-.-.-.-.-.-.-.",
"-.-.-.-.-.-.-.-.-.-.-.-.-.-.-.-.-.-.-.-.-.-.-.-.-.-.-.-.-.-.-.-.-.-.-.-.-.-.-.-.-.-.-.-.-.-.-.-.-.-.-.-.-.-.-.-.-.-.-.-.-.-.-.-.",
"-.-.-.-.-.-.-.-.-.-.-.-.-.-.-.-.-.-.-.-.-.-.-.-.-.-.-.-.-.-.-.-.-.-.-.-.-.-.-.-.-.-.-.-.-.-.-.-.-.-.-.-.-.-.-.-.-.-.-.-.-.-.-.-.",
"-.-.-.-.-.-.-.-.-.-.-.-.-.-.-.-.-.-.-.-.-.-.-.-.-.-.-.-.-.-.-.-.-.-.-.-.-.-.-.-.-.-.-.-.-.-.-.-.-.-.-.-.-.-.-.-.-.-.-.-.-.-.-.-.",
"-.-.-.-.-.-.-.-.-.-.-.-.-.-.-.-.-.-.-.-.-.-.-.-.-.-.-.-.-.-.-.-.-.-.-.-.-.-.-.-.-.-.-.-.-.-.-.-.-.-.-.-.-.-.-.-.-.-.-.-.-.-.-.-.",
"-.-.-.-.-.-.-.-.-.-.-.-.-.-.-.-.-.-.-.-.-.-.-.-.-.-.-.-.-.-.-.-.-.-.-.-.-.-.-.-.-.-.-.-.-.-.-.-.-.-.-.-.-.-.-.-.-.-.-.-.-.-.-.-.",
"-.-.-.-.-.-.-.-.-.-.-.-.-.-.-.-.-.-.-.-.-.-.-.-.-.-.-.-.-.-.-.-.-.-.-.-.-.-.-.-.-.-.-.-.-.-.-.-.-.-.-.-.-.-.-.-.-.-.-.-.-.-.-.-.",
"-.-.-.-.-.-.-.-.-.-.-.-.-.-.-.-.-.-.-.-.-.-.-.-.-.-.-.-.=.` g i % + X X + , E -.-.-.-.-.-.-.-.-.-.-.-.-.-.-.-.-.-.-.-.-.-.-.-.-.",
"-.-.-.-.-.-.-.-.-.-.-.-.-.-.-.-.-.-.-.-.-.-.-.-.-.> + $ $ $ $ $ $ $ $ $ $ $ $ $   -.-.-.-.-.-.-.-.-.-.-.-.-.-.-.-.-.-.-.-.-.-.-.",
"-.-.-.-.-.-.-.-.-.-.-.-.-.-.-.-.-.-.-.-.-.=.i $ $ $ $ $ $ $ @ + O - - - - + $ $ $ + -.-.-.-.-.-.-.-.-.-.-.-.-.-.-.-.-.-.-.-.-.-.",
"-.-.-.-.-.-.-.-.-.-.-.-.-.-.-.-.-.-.-.=.X $ $ $ $ $ O b .... . . . . . . . .X.% $ $   -.-.-.-.-.-.-.-.-.-.-.-.-.-.-.-.-.-.-.-.-.",
"-.-.-.-.-.-.-.-.-.-.-.-.-.-.-.-.-.-.% $ $ $ $ 5 ] .. . . . . . . . . . . . . . .1 $ $ -.-.-.-.-.-.-.-.-.-.-.-.-.-.-.-.-.-.-.-.-.",
"-.-.-.-.-.-.-.-.-.-.-.-.-.-.-.-.d $ $ $ $ % q @ . . o o . . O ; U [  . . . . . ...$ $ *.-.-.-.-.-.-.-.-.-.-.-.-.-.-.-.-.-.-.-.-.",
"-.-.-.-.-.-.-.-.-.-.-.-.-.-.*.+ $ $ $ $ $ $ $ $ $ $ $ $ $ $ $ % $ $ $ $ $ + 0 ! ..$ $ =.-.-.-.-.-.-.-.-.-.-.-.-.@.a + + $ + + Y ",
"-.-.-.-.-.-.-.-.-.-.-.#.X $ $ $ $ $ $ $ $ $ $ $ $ @ $ $ @ $ $ @ $ $ $ $ $ $ $ $ $ $ $ =.-.-.-.-.-.-.-.-.-.-.+.+ $ $ $ $ $ $ $ $ ",
"-.-.-.-.-.-.-.-.=.u $ $ $ $ % $ + 2 l D P P P P P P P P P P P P P P J C r $ $ $ $ $ $ $ X W -.-.-.-.-.-.-.% $ $ $ $ $ 9 $ $ $ ) ",
"-.-.-.-.-.-.=.X $ $ $ $ $ $ h P P P P P P P P P P P P P P P P P P P P P P P P P c $ $ $ $ $ $ ( -.-.-.-.$ $ $ $ V P P $ $ $ _ -.",
"-.-.-.-.-.p $ $ $ $ - { + $ $ P P P P P P P P P P P P P P P P P P P P P P P P P P P P l + % $ $ + $.-.+ $ $ < P P P x $ $ f -.-.",
"-.-.-.=.+ $ $ $ : X. . .| $ $ o P P P P P P P P P P n o o + ; e M G P P P P P P P P P P P F $ $ $ $ + $ $ w P P P P $ $ + -.-.-.",
"-.-.&.+ $ $ %  . . . . . .: $ $ I P P P P P P P P P % % $ $ $ $ $ $ $ $ + < B P P P P P P P P x $ $ $ $ $ P P P P k $ $ %.-.-.-.",
"-.-.$ $ $ v  . . . . . . ...$ $ 7 P P P P P P P P P 3 % $ $ @ @ $ $ $ $ % $ $ $ O P P P P P P P P $ $ $ P P P P P $ $ O -.-.-.-.",
"-.% $ $ ~  . . . . . . . . .- $ + P P P P P P P P P P P P P P P P K A r O $ $ $ $ Z P P P P P L P P h G P P P P P $ $ W -.-.-.-.",
"+.$ $ t  . . . ...O +  . . .U $ % P P P P P P P P P P P P P P P P P P P I P P r < P P P P P P P P P P P P P P P G $ $ &.-.-.-.-.",
"+ $ +  . . . . ./ $ $ t  . .} $ $ P P P P P P P P P P P P P P P P P P P P P P P P P P P P P P P P P P P P P P P c $ $ -.-.-.-.-.",
"$ $ : .. . . . . .$ +  . . . .% $ F P P P P P P P P P P P P P P P P P P P P P P P P P P P P P P P P P P P P P P 4 $ + -.-.-.-.-.",
"$ $ 6  . . . . . . . . . . ...$ $ Z P P P L P P P P P P P P P P P P P P P P P P P P P P P P P P P P P P P P P P 1 % + -.-.-.-.-.",
"+ $ -  . . . . . . . . . . . .$ $ H P P P P P P P P P P P P P P P P P P P P P P P P I P P P P P P P P P P P I P 7 $ + -.-.-.-.-.",
"- % $  . . . . . . . . . . .} $ $ P P P P P P P P P P P P P P P P P P P P P P P P P P P P P P P P P P P P P P P n $ $ -.-.-.-.-.",
"#.$ $ 5  . . . . . . . . . .b $ & P P P P P P P P P P P P P P P P P P P P P P P P P P P P P P P P P P P P P P P J $ $ %.-.-.-.-.",
"-.* % $ j  . . . . . . . . .# $ + P P P P P P P L P P P P P P P P P P P P P P P P P P P P P P P P P & N P P P P P $ $ Y -.-.-.-.",
"-.-.+ $ $ q  . . . . . . ...$ $ w P P P P P P P P P P P P P P P P P P P P P P P P P P P P P P P K $ $ $ P P P P P & $ + -.-.-.-.",
"-.-.=.+ $ $ $  . . . . . .@ $ $ P P P P P P P P P P P P P P P P P P P P P P P P P P P P P P P 3 $ $ $ # $ P P P P M $ $ o.-.-.-.",
"-.-.-.-.% $ $ $ * }  . .{ $ $ $ P P P P P L P P P P P P P P P P P P P P P P P P P P P P P z + $ $ $ 6 % $ < P P P P $ $ $ -.-.-.",
"-.-.-.-.-.W $ $ $ $ $ ^ $ $ $ P P P P P P P P P P P P P P P P P P P P P P P P P P P P = @ $ $ $ X =.-.O $ $ $ P P P A $ $ - -.-.",
"-.-.-.-.-.-.-.a $ $ $ $ $ $ 8 I P P P P P P P P P P P P P P P P P P P P P P P S 7 @ $ $ $ $ $ $ -.-.-.-.X $ $ $ e P P & $ $ Y -.",
"-.-.-.-.-.-.-.-.-.R + $ $ $ $ $ $ $ & m P P P P P P P P P P P P P P F w + $ $ $ $ $ $ $ o t $ $ -.-.-.-.-., $ $ $ $ $ + $ $ $ a ",
"-.-.-.-.-.-.-.-.-.-.-.*.a + $ $ $ $ $ $ $ $ $ $ $ # + + + # @ $ $ $ $ % $ $ $ $ $ ; Q X...$ $ % -.-.-.-.-.-.*.$ $ $ $ $ $ $ $ $ ",
"-.-.-.-.-.-.-.-.-.-.-.-.-.-.-.@.> X $ $ $ $ $ $ $ $ $ $ $ $ $ $ $ $ $ $ $ $ 5 .. . ...X.$ $ $ @.-.-.-.-.-.-.-.-.-.)   X @ +   O.",
"-.-.-.-.-.-.-.-.-.-.-.-.-.-.-.-.-.-.-.%.$ $ $ & q 0 0 6 0 q 0 $ $ $.-.=.$ $ $ + q y * $ $ $ i -.-.-.-.-.-.-.-.-.-.-.-.-.-.-.-.-.",
"-.-.-.-.-.-.-.-.-.-.-.-.-.-.-.-.-.-.-.-.$.$ $ $ $ ' .. . . .7 % $ -.-.-.-.+ $ $ $ $ $ $ $ s -.-.-.-.-.-.-.-.-.-.-.-.-.-.-.-.-.-.",
"-.-.-.-.-.-.-.-.-.-.-.-.-.-.-.-.-.-.-.-.-.=.+ $ $ $ $ O * % $ $ X -.-.-.-.-.( + + $ X a -.-.-.-.-.-.-.-.-.-.-.-.-.-.-.-.-.-.-.-.",
"-.-.-.-.-.-.-.-.-.-.-.-.-.-.-.-.-.-.-.-.-.-.-.o.$ $ $ $ $ $ $ $ -.-.-.-.-.-.-.-.-.-.-.-.-.-.-.-.-.-.-.-.-.-.-.-.-.-.-.-.-.-.-.-.",
"-.-.-.-.-.-.-.-.-.-.-.-.-.-.-.-.-.-.-.-.-.-.-.-.-.&.T > X O s -.-.-.-.-.-.-.-.-.-.-.-.-.-.-.-.-.-.-.-.-.-.-.-.-.-.-.-.-.-.-.-.-.",
"-.-.-.-.-.-.-.-.-.-.-.-.-.-.-.-.-.-.-.-.-.-.-.-.-.-.-.-.-.-.-.-.-.-.-.-.-.-.-.-.-.-.-.-.-.-.-.-.-.-.-.-.-.-.-.-.-.-.-.-.-.-.-.-.",
"-.-.-.-.-.-.-.-.-.-.-.-.-.-.-.-.-.-.-.-.-.-.-.-.-.-.-.-.-.-.-.-.-.-.-.-.-.-.-.-.-.-.-.-.-.-.-.-.-.-.-.-.-.-.-.-.-.-.-.-.-.-.-.-.",
"-.-.-.-.-.-.-.-.-.-.-.-.-.-.-.-.-.-.-.-.-.-.-.-.-.-.-.-.-.-.-.-.-.-.-.-.-.-.-.-.-.-.-.-.-.-.-.-.-.-.-.-.-.-.-.-.-.-.-.-.-.-.-.-.",
"-.-.-.-.-.-.-.-.-.-.-.-.-.-.-.-.-.-.-.-.-.-.-.-.-.-.-.-.-.-.-.-.-.-.-.-.-.-.-.-.-.-.-.-.-.-.-.-.-.-.-.-.-.-.-.-.-.-.-.-.-.-.-.-.",
"-.-.-.-.-.-.-.-.-.-.-.-.-.-.-.-.-.-.-.-.-.-.-.-.-.-.-.-.-.-.-.-.-.-.-.-.-.-.-.-.-.-.-.-.-.-.-.-.-.-.-.-.-.-.-.-.-.-.-.-.-.-.-.-.",
"-.-.-.-.-.-.-.-.-.-.-.-.-.-.-.-.-.-.-.-.-.-.-.-.-.-.-.-.-.-.-.-.-.-.-.-.-.-.-.-.-.-.-.-.-.-.-.-.-.-.-.-.-.-.-.-.-.-.-.-.-.-.-.-.",
"-.-.-.-.-.-.-.-.-.-.-.-.-.-.-.-.-.-.-.-.-.-.-.-.-.-.-.-.-.-.-.-.-.-.-.-.-.-.-.-.-.-.-.-.-.-.-.-.-.-.-.-.-.-.-.-.-.-.-.-.-.-.-.-.",
"-.-.-.-.-.-.-.-.-.-.-.-.-.-.-.-.-.-.-.-.-.-.-.-.-.-.-.-.-.-.-.-.-.-.-.-.-.-.-.-.-.-.-.-.-.-.-.-.-.-.-.-.-.-.-.-.-.-.-.-.-.-.-.-.",
"-.-.-.-.-.-.-.-.-.-.-.-.-.-.-.-.-.-.-.-.-.-.-.-.-.-.-.-.-.-.-.-.-.-.-.-.-.-.-.-.-.-.-.-.-.-.-.-.-.-.-.-.-.-.-.-.-.-.-.-.-.-.-.-.",
"-.-.-.-.-.-.-.-.-.-.-.-.-.-.-.-.-.-.-.-.-.-.-.-.-.-.-.-.-.-.-.-.-.-.-.-.-.-.-.-.-.-.-.-.-.-.-.-.-.-.-.-.-.-.-.-.-.-.-.-.-.-.-.-.",
"-.-.-.-.-.-.-.-.-.-.-.-.-.-.-.-.-.-.-.-.-.-.-.-.-.-.-.-.-.-.-.-.-.-.-.-.-.-.-.-.-.-.-.-.-.-.-.-.-.-.-.-.-.-.-.-.-.-.-.-.-.-.-.-.",
"-.-.-.-.-.-.-.-.-.-.-.-.-.-.-.-.-.-.-.-.-.-.-.-.-.-.-.-.-.-.-.-.-.-.-.-.-.-.-.-.-.-.-.-.-.-.-.-.-.-.-.-.-.-.-.-.-.-.-.-.-.-.-.-.",
"-.-.-.-.-.-.-.-.-.-.-.-.-.-.-.-.-.-.-.-.-.-.-.-.-.-.-.-.-.-.-.-.-.-.-.-.-.-.-.-.-.-.-.-.-.-.-.-.-.-.-.-.-.-.-.-.-.-.-.-.-.-.-.-.",
"-.-.-.-.-.-.-.-.-.-.-.-.-.-.-.-.-.-.-.-.-.-.-.-.-.-.-.-.-.-.-.-.-.-.-.-.-.-.-.-.-.-.-.-.-.-.-.-.-.-.-.-.-.-.-.-.-.-.-.-.-.-.-.-."
};
