/* XPM */
static char *result[] = {
/* columns rows colors chars-per-pixel */
"64 64 3 1 ",
"  c #FDFDFD",
". c #FEFEFE",
"X c white",
/* pixels */
"................................................................",
"................................................................",
"................................................................",
"................................................................",
"................................................................",
"................................................................",
"..........................            .......      .............",
"..........................            .......      .............",
"..........................            .......      .............",
"................................................................",
"..........................XXXXXXXXXXXX.......XXXXXX.............",
"..........................XXXXXXXXXXXX.......XXXXXX.............",
"..........................XXXXXXXXXXXX.......XXXXXX.............",
"................................................................",
"................................................................",
"................................................................",
"................................................................",
"................................................................",
"................................................................",
"...................................... ..X.. ...................",
"...................................... ..X.. ...................",
"...................................... ..X.. ...................",
"...................................... ..X.. ...................",
"...................................... ..X.. ...................",
"...................................... ..X.. ...................",
".........................................X.. ...................",
".............XXXXXX.......XXXXXXXXXXXX.......XXXXXX.......XXXXXX",
".............XXXXXX.......XXXXXXXXXXXX.......XXXXXX.......XXXXXX",
".............XXXXXX.......XXXXXXXXXXXX.......XXXXXX.......XXXXXX",
".............XXXXXX.......XXXXXXXXXXXX.......XXXXXX.......XXXXXX",
".............XXXXXX.......XXXXXXXXXXXX.......XXXXXX.......XXXXXX",
"..........................................................XXXXXX",
"................................................................",
"................................................................",
"................................................................",
"................................................................",
"................................................................",
"................................................................",
".........................................X.. ...................",
"...................................... ..X.. ...................",
"...................................... ..X.. ...................",
"...................................... ..X.. ...................",
"...................................... ..X.. ...................",
"...................................... ..X.. ...................",
"...................................... ..X.. ...................",
".............XXXXXX.......XXXXXXXXXXXX.......XXXXXX.............",
".............XXXXXX.......XXXXXXXXXXXX.......XXXXXX.............",
".............XXXXXX.......XXXXXXXXXXXX.......XXXXXX.............",
".............XXXXXX.......XXXXXXXXXXXX.......XXXXXX.............",
"................................................................",
"................................................................",
"...................................... ..X.. ...................",
"...................................... ..X.. ...................",
"...................................... ..X.. ...................",
"...................................... ..X.. ...................",
"...................................... ..X.. ...................",
"...................................... ..X.. ...................",
".........................................X.. ...................",
"................................................................",
"................................................................",
"................................................................",
"................................................................",
"................................................................",
"................................................................"
};
