/* XPM */
static char *result[] = {
/* columns rows colors chars-per-pixel */
"64 64 197 2 ",
"   c #010203",
".  c #080708",
"X  c #190F00",
"o  c #040C12",
"O  c #06151B",
"+  c #09161A",
"@  c #141313",
"#  c #1F1D15",
"$  c #14141A",
"%  c #1C1C1C",
"&  c #29190A",
"*  c #211D1E",
"=  c #182411",
"-  c #21211F",
";  c #342E14",
":  c #3E391C",
">  c #1A1B27",
",  c #211F23",
"<  c #251E28",
"1  c #0C222A",
"2  c #152126",
"3  c #15222A",
"4  c #143137",
"5  c #19343A",
"6  c #292628",
"7  c #372C28",
"8  c #3D3727",
"9  c #242B33",
"0  c #2C2C34",
"q  c #2D2D39",
"w  c #352E35",
"e  c #243336",
"r  c #2B343B",
"t  c #35343C",
"y  c #3A3438",
"u  c #3C3A3C",
"i  c #580603",
"p  c #58150A",
"a  c #7D0E02",
"s  c #720B08",
"d  c #741202",
"f  c #7A1001",
"g  c #4D322D",
"h  c #51302C",
"j  c #443937",
"k  c #453A3F",
"l  c #524512",
"z  c #585111",
"x  c #615B13",
"c  c #48433B",
"v  c #7D7331",
"b  c #2C3B42",
"n  c #353542",
"m  c #333D44",
"M  c #3D3D4A",
"N  c #493E44",
"B  c #384545",
"V  c #3C444A",
"C  c #3E6267",
"Z  c #464347",
"A  c #4C4846",
"S  c #43444C",
"D  c #524B4B",
"F  c #424851",
"G  c #4B4B53",
"H  c #574C56",
"J  c #4D555E",
"K  c #555355",
"L  c #595856",
"P  c #53555C",
"I  c #5A585D",
"U  c #786159",
"Y  c #4D5A61",
"T  c #555463",
"R  c #5C5C65",
"E  c #5D5D6A",
"W  c #655B64",
"Q  c #615E6C",
"!  c #645F73",
"~  c #516767",
"^  c #5C6067",
"/  c #5D636C",
"(  c #536B72",
")  c #656467",
"_  c #64636D",
"`  c #6C6A69",
"'  c #796663",
"]  c #656574",
"[  c #686777",
"{  c #656B75",
"}  c #696A76",
"|  c #66657A",
" . c #696679",
".. c #666B78",
"X. c #6B6B7A",
"o. c #726B76",
"O. c #716D7D",
"+. c #66777A",
"@. c #6E727D",
"#. c #72727E",
"$. c #777D7C",
"%. c #830C02",
"&. c #8D0902",
"*. c #811104",
"=. c #8D3A33",
"-. c #D53D37",
";. c #A0413B",
":. c #B9493E",
">. c #D4422D",
",. c #C9443A",
"<. c #D34235",
"1. c #D74339",
"2. c #B54C44",
"3. c #C84A43",
"4. c #868238",
"5. c #D6C719",
"6. c #DACC1D",
"7. c #D5C524",
"8. c #DCCA23",
"9. c #D5C72B",
"0. c #DAC62E",
"q. c #DCCB29",
"w. c #CFC630",
"e. c #DEC732",
"r. c #DACA33",
"t. c #D5C838",
"y. c #E1CC2B",
"u. c #9A975D",
"i. c #D5CA4C",
"p. c #6F6585",
"a. c #6D6C81",
"s. c #706D82",
"d. c #726A8B",
"f. c #6F7282",
"g. c #727181",
"h. c #7A7E82",
"j. c #6A8185",
"k. c #858A8D",
"l. c #9B8989",
"z. c #888F94",
"x. c #80999C",
"c. c #939B9D",
"v. c #9C9B99",
"b. c #A58B88",
"n. c #B58D86",
"m. c #BA8E86",
"M. c #B98789",
"N. c #B58E89",
"B. c #B98E89",
"V. c #AC938E",
"C. c #BB9086",
"Z. c #B6918B",
"A. c #B9928B",
"S. c #A59A95",
"D. c #BA9492",
"F. c #B89794",
"G. c #BDA49F",
"H. c #979FA4",
"J. c #A4A3A5",
"K. c #ADAFB2",
"L. c #A6B7B8",
"P. c #B1B4B4",
"I. c #B9B5B6",
"U. c #B6B7B9",
"Y. c #BCBDBC",
"T. c #C08F88",
"R. c #D2BFBD",
"E. c #C7C4BE",
"W. c #BAC4C5",
"Q. c #BBD0D2",
"!. c #C2C1C2",
"~. c #C9CAC5",
"^. c #CBCCCC",
"/. c #D3CFCC",
"(. c #DBCECA",
"). c #CCD3CE",
"_. c #D3D2CD",
"`. c #DBD1CB",
"'. c #CCCBD1",
"]. c #D6CFD4",
"[. c #CFD3D2",
"{. c #C8D7D8",
"}. c #CFD4DA",
"|. c #D4D3D2",
" X c #D8D6D6",
".X c #D9D8D6",
"XX c #D7DBD8",
"oX c #DADCDC",
"OX c #DCE0DF",
"+X c #D8D6E1",
"@X c #DEE3E3",
"#X c #E4E7E7",
"$X c #E3E7E9",
"%X c #EDEDED",
"&X c #EFF2F2",
"*X c #F3F3F3",
"=X c #FEFEFE",
/* pixels */
"=X=X%X=X=X%X=X=X%X=X=X%X=X=X%X=X=X%X=X=X%X=X=X%X=X=X%X=X=X%X=X=X%X%X=X%X%X=X%X%X=X%X%X=X%X%X=X%X%X=X%X%X=X%X%X=X%X%X=X%X%X=X*X%X",
"=X=X%X=X=X%X=X=X%X=X=X%X=X=X%X=X=X%X=X=X%X=X=X%X=X=X%X=X=X%X=X=X%X*X=X%X%X=X%X%X=X%X%X=X%X%X=X%X%X=X%X%X=X%X%X=X%X%X=X%X%X=X*X%X",
"%X*X=X%X%X=X%X%X=X%X%X=X%X%X=X%X%X=X%X%X=X%X%X=X%X%X=X%X%X=X*X%X=X=X%X=X=X%X=X=X%X=X=X%X=X=X%X=X=X%X=X=X%X=X=X%X=X=X%X=X=X%X=X=X",
"%X%X=X%X%X=X%X%X=X%X%X=X%X%X=X%X%X=X%X%X=X%X%X=X%X%X=X%X%X=X%X%X=X=X%X=X=X%X=X=X%X=X=X%X=X=X%X=X=X%X=X=X%X=X=X%X=X=X%X=X=X%X=X=X",
"=X=X%X=X=X%X=X=X%X=X=X%X=X=X%X=X=X%X=X=X%X=X=X%X=X=X%X=X=X%XY =X%X*X=X%X%X=X%X%X=X%X%X=X%X%X=X%X%X=X%X%X=X%X%X=X%X%X=X%X%X=X%X%X",
"=X=X%X=X=X%X=X=X%X=X=X%X=X=X%X=X=X%X=X=X%X=X=X%X=X=X%X=X=X%X=Xg./ *X=X%X%X=X%X%X=X%X%X=X%X%X=X%X%X=X%X%X=X%X%X=X%X%X=X%X%X=X*X%X",
"%X*X=X%X%X=X%X%X=X%X%X=X%X%X=X%X%X=X%X%X=X%X%X=X%X%X=X%X%X=X*Xg.#.K.%X=X=X%X=X=X%X=X=X%X=X=X%X=X=X%X=X=X%X=X=X%X=X=X%X=X=X%X=X=X",
"%X%X=X%X%X=X%X%X=X%X%X=X%X%X=X%X%X=X%X%X=X%X%X=X%X%X=X%X%X=X*Xg.g.#.%X=X=X%X=X=X%X=X=X%X=X=X%X=X=X%X=X=X%X=X=X%X=X=X%X=X=X%X=X=X",
"=X=X%X=X=X%X=X=X%X=X=X%X=X=X%X=X=X%X=X=X%X=X=X%X=X=X%X=X=X%X=Xg.g.g.O.&X%X=X%X%X=X%X%X=X%X%X=X%X%X=X%X%X=X%X%X=X%X%X=X%X%X=X*X%X",
"=X=X%X=X=X%X=X=X%X=X=X%X=X=X%X=X=X%X=X=X%X=X=X%X=X=X%X=X=X%X=Xg.g.g.g.S %X=X%X%X=X%X%X=X%X%X=X%X%X=X%X%X=X%X%X=X%X%X=X%X%X=X%X%X",
"%X*X=X%X%X=X%X%X=X%X%X=X%X%X=X%X%X=X%X%X=X%X%X=X%X%X=X%X%X=X&XO.g.g.g.g.=X%X=X=X%X=X=X%X=X=X%X=X=X%X=X=X%X=X=X%X=X=X%X=X=X%X=X=X",
"%X%X=X%X%X=X%X%X=X%X%X=X%X%X=X%X%X=X%X%X=X%X%X=X%X%X=X%X%X=X&Xg.g.s.g.g.=X%X=X=X%X=X=X%X=X=X%X=X=X%X=X=X%X=X=X%X=X=X%X=X=X%X=X=X",
"=X=X%X=X=X%X=X=X%X=X=X%X=X=X%X=X=X%X=X=X%X=X=X%X=X=X%X=X=X%X=X#.O.#.g.O.r =X%X%X=X%X%X=X%X%X=X%X%X=X%X%X=X%X%X=X%X%X=X%X%X=X%X%X",
"=X=X%X=X=X%X=X=X%X=X=X%X=X=X%X=X=X%X=X=X%X=X=X%X=X=X%X=X=X%X*X#.O.O.O.g.X.=X%X%X=X%X%X=X%X%X=X%X%X=X%X%X=X%X%X=X%X%X=X%X%X=X*X%X",
"%X%X=X%X%X=X%X%X=X%X%X=X%X%X=X%X%X=X%X%X=X%X%X=X%X%X=X%X%X=X*XT M #.G R f.%X=X=X%X=X=X%X=X=X%X=X=X%X=X=X%X=X=X%X=X=X%X=X=X%X=X=X",
"%X*X=X%X%X=X*X%X=X%X%X=X%X*X=X%X%X=X&X%X=X%X&X=X%X&X=X%X%X=X&XO.X.} 0 X.t %X=X=X%X=X=X%X=X=X%X=X=X%X=X=X%X=X=X%X=X=X%X=X=X%X=X=X",
"=X=X*X=X=X%X=X=X%X=X=X*X=X=X%X=X=X%X=X=X%X=X=X5 R @.X.X.X.O.O.X.X.X.M M X.] %X%X=X%X%X=X%X&X=X%X%X=X%X%X=X&X%X=X&X&X=X%X%X=X*X%X",
"=X*X*X*X=X*X=X*X*X=X*X*X=X*X=X*X*X*X=X*X*Xb f.X.{ J m t V ^ } X.X.X.X.X.n X.#.*X*X=X*X*X*X*X*X*X*X=X*X*X*X*X*X*X*X*X=X*X*X*X*X*X",
"%X%X=X%X%X=X%X%X=X%X%X=X%X%X=X%X%X=X%X%X1 c.%X=X%X%X=X%X%XU.X.X.q X.X.X.X.X.X.g.%X=X=X%X=X=X%X=X=X%X=XOXW.H./ F S b ^ z.^.%X=X=X",
"=X=X%X=X=X%X=X=X%X=X=X%X=X=X%X=X=X*X=X=X%X=X=X%X=X=X%Xg.X.X.X. .} [ T X.X.X. .X.#.%X%X=X%X*X=Xz.B } X.X.X.O.#.s.s.O.o.K 6 j XX*X",
"=X=X%X=X=X%X=X=X%X=X=X%X=X=X%X=X=X%X=X=X%X=X=X%X=Xr  .X.X. . .X.X.[ [ X.X.X.X.X. .X.%X}.3 ....O.X.X.X.a.X.X.} D ' Z.B.B.M.S.&X%X",
"%X*X=X%X%X=X%X%X=X%X%X=X%X%X=X%X%X=X%X%X=X%X%X~ R [  .X. .X.X.}  .X.[ }  .X.X.X.X.X._ } X.X. .X.X.X.X.X.} y V.N.N.N.B.n.J.%X=X=X",
"%X&X=X%X%X=X%X%X=X%X%X=X%X%X=X%X%X=X%X%X=X%XO       X.X.X.X.[ | } [ X.[ [ } [ X.[ [ { G X. .[ X. . .| _ b.C.B.N.N.N.n.# =X%X=X=X",
"=X=X%X=X=X%X=X=X%X=X=X%X=X=X%X=X=X%X=X=X%Xr   +.[   X.X.X...[ [ _     } | }  . .[ [ [ [ [  ...[ | | y n.N.Z.N.N.n.N.V.%X%X=X%X%X",
"=X=X%X=X=X%X=X=X%X=X=X%X=X=X%X=X=X%X=X=X$X  X.X.X.X._ } [ [ [ [ @       R [ [ [ [ [ | [ [ [ [ [ X.w Z.Z.C.N.N.N.N.M.$ %X%X=X&X%X",
"%X&X=X%X%X=X%X%X=X%X%X=X%X%X=X%X%X=X%X%Xo X.s.X.X.X.{ X.[ [ [ ] [ _       [ [ [ ] [ [ [ [ [ [ ] H A.A.Z.Z.N.C.n.n.N.%X=X=X%X=X=X",
"&X*X=X%X%X=X%X%X=X%X%X=X%X%X=X%X%X=X%Xx.f.X.X.X.X.[ [ [ [ [ ] | | | [ r   S ] ]  .[ ] [ ] ] ] ] Z.Z.D.B.Z.N.N.n.N.Z.%X=X=X%X=X=X",
"=X*X%X=X=X%X=X=X%X=X=X%X=X=X%X=X=X%X=XV X.f.a.{ [ [ [ [ ] [ [ [ [ ] [ [ . > [ [ ] [ [ | ] ] ] y A.Z.Z.Z.C.Z.B.n.n.U =X%X%X=X%X%X",
"=X=X%X=X=X%X=X=X%X=X=X%X=X=X%X=X=X%X=X@.@.: 4.| [ [ [ ] [ ] [ ] ] ] ] ]   $ ] ] ] ] ] ] ] ] ! ' D.A.N.A.N.N.n.n.u.7 =X%X%X=X&X%X",
"%X&X=X%X%X=X%X%X=X%X%X=X%X%X=X%X%X=Xf.X.d.5.y._ } [ ] [ [ ] [ { ] [ ] ] % $ ] ] ] ] ] ] Q ] ] b.D.l.V.C.N.N.B.n.T.!.%X=X=X%X=X=X",
"%X%X=X%X%X=X%X%X=X%X%X=X%X%X=X%X%X=X/ a.: q.q.c  .[ [ ] ] ] 8 i.; | ] [ 0 0 | [ | ] ] ] ] ] ] k b._ Z.Z.n.N.N.N.M.! %X=X=X%X=X=X",
"=X=X%X=X=X%X=X=X%X=X=X%X=X=X%X=X=X%XX.#.i.q.8.8 [ [ ] ] ] W 5.e.i.] [ ] 0 R ] ] ] / ] ] ] ] ] ! Q b.C.Z.N.N.N.n.n.].=X%X%X=X%X%X",
"=X=X%X=X@X( ~ =X%X=X=X%X=X=X%X=X=X&Xo...y.8.y.A [ [ ] [ / i.e.7.t.! ] ] > _ [ ] ] ] / ] ! ] ! ] E H m.C.N.N.N.n.n.%X=X%X%X=X&X%X",
"%X&X=X%X&X=X%X%XQ.L.%X=X%X%X=X%X%X=Xd.} q.8.0.Q ] ] ] ] ^ 7.q.8.0.] ] ] { ] ] [ ] ] ] ] ! ] ! E u E j B.C.n.n.n.n.=X%X=X=X%X=X=X",
"%X&X=X%X&X=X%X%X=X%X%XC %X%X=X%X%X=Xp.D y.i.l  .] ] ] _ v 7.e.8.i.] ] ] [ ] ] ] ! ] ] ] ] ! Q ] W Z.N n.N.N.n.n.n.=X%X=X=X%X=X=X",
"=X*X%X=X=X%X=X=X%X=X=X%Xj.=X%X=X=X%Xs.j 0.< 2 ] ] [ [ [ w.7.8.5.z / ] ] ] ] ] ] ] ] ] ] / ] ! / / g B.M.N.N.n.n.n.%X=X%X%X=X%X%X",
"=X=X%X=X=X%X=X=X%X=X=X%X=X=X{.=X=XW.X.Z r.< % [ ] [ ] L 6.e.5.5.c ] ] ] ] [ ] ] ] ] ] ] ] _ ! ] ] Q B.m.B.n.n.n.n.%X=X%X%X=X&X%X",
"%X&X=X%X%X=X%X%X=X%X%X=X%X%X=X$X%X1 X.K w.% $ ] ] ] ] x 5.5.X & | ] ] ] ] ] ] ] ] ] ] E ! ] ! Q F.E B.A.C.N.n.n.l.=X%X=X=X%X=X=X",
"%X&X=X%X%X=X%X%X=X%X%X=X%X%X=X%X5 X. .[ 5.= t ] ] ] ] t.5.& > % _ ] ] ] [ ] ] [ ] ] ] ! ] / ! w C.w N.C.B.B.n.n.J.=X%X=X=X%X=X=X",
"=X=X%X=X=X%X=X=X%X=X=X%X=X=X~ ^ o.X. .} 5.* ] ] ] ] ! 7.9.* , 6 ] ] T | ] ] ] ] ] ] ] ] ] ! ! y Z.V.A.C.N.N.n.N.%X%X=X%X%X=X%X%X",
"=X=X%X=X=X%X=XL.j.5 ( %X{ +.O.X.X.X.w ^.+X.Xj.W _ _ K 5.w.% , ]  .] | ] ] [ ] ] [ ] ] ] ] ] / H D.Z.C.Z.B.C.C.) %X%X=X%X%X=X*X%X",
"%X%X=X%X{.W.%X&X=X%X&X1 e > X.@.X.Z ^.|.|..X`..X|..X|.S.u.% 2 ] | S ] | ] ] ] ] ] ] ] ] ] ] ] ] Z.D.Z.C.Z.A.V.%X=X=X%X=X=X%X=X=X",
"%X&X=X%X%X=X%X%X=X%X%X=XX.X.X.n X.|.XX^.K - @ I.|.|.|.|.|.% I _ _ ] ] ] ] ] ] [ ] [ ] ] / ] ! ! V.A.D.A.C.F.oX%X=X=X%X=X=X%X=X=X",
"=X=X%X=X=X%X=X=X%X=X=X| @.X.g.X.X.Y.|.|.- - - - ` |.|.|._..XXX_.I.] ] ] ] ] [ ] ] ] ] ! ] ] ] ] Z A.A.C.Z.oX%X=X%X%X=X%X%X=X%X%X",
"=X=X%X=X=X%X=X=X%X=X1 g.s.f.#.X.X.|.` )..X@ * @ . |.|.|.}.R.L I.~.Q ! _ ] [ [ E M P Q Q ] [ ] ] [ k B.T.P.%X%X=X%X%X=X%X%X=X*X%X",
"%X*X=X%X%X=X%X%X=X%Xg.g.g.V #.X.X.|._.v.|.|.u _._._.|._.).|./._./.[.] ] [ [ [ E | ] ] n [ ] ] [ [ X.S =X%X=X=X%X=X=X%X=X=X%X=X=X",
"%X&X=X%X%X=X%X%X=X@X#.2 %X@.X.g.X.r |.|.|.|._._.|.|._.I./.|._. X|.& '.u R T 0 [ | | [ ] T [ [ [ { |  .P %X=X=X%X=X=X%X=X=X%X=X=X",
"=X=X%X=X=X%X=X=X%X=X2 %XX.#.O.O.X.X.P._.`._.|._._.|.|.].|.[.!.o.h g ].|._.|.{ [ ] ] [ ] [ [ [ ]  . .X.X.R %X%X=X%X%X=X%X%X=X%X%X",
"=X=X%X=X=X%X=X=X%X=X=X0 $.=Xc.R O.X.} q k.) A |.|.|.|.|.E.U g p &.~.S.P.|.H.] ] [ [ [ [ [ [ [ [  .X.X.X.X.%X%X=X%X%X=X%X%X=X*X%X",
"%X%X=X%X%X=X%X%X=X%X%X=X%X%X=X%Xr X.X.X.X.Y.|.K _.|.^.p %.f f *.f |.|.|. Xn [ ] [ [ [ [ [ [ [ R h.V ..X.#...=X%X=X=X%X=X=X%X=X=X",
"%X&X=X%X%X=X&X&X=X%X&X=X%X%X=X%X%Xm X.X.X.} |._.^.c d a f %.%.a i |._.|.t [ [ n ] [  .X. .} } [ B %X=X9 #.#.=X&X=X=X%X=X=X%X=X=X",
"=X=X%X=X=X%X=X=X%X=X=X%X=X=X%X=X=X%X] a.X.} u |.|.`.a a %.%.%.%.b.|._.u P [ [ [ ] E } [  .X. . . ._ %X%XU.X.%X=X%X%X=X%X%X=X%X%X",
"=X*X*X=X*X*X=X*X*X*X=X&X=X*X*X=X=X&X&X{ X.X.} |.).[.s 3.i :.,.i |.[.|.6 0 [ [ [ X.X.t  .} r k.#XoXP r *X=XK.&X*X&X&X=X*X*X=X*X*X",
"%X*X=X%X%X=X%X&X=X%X%X=X%X%X=X%X%X=X%Xe X.X.X.G |.U <.<.-.-.>.;.}.|._.t [  .X. .X.} ] o =X=X%X=X=X%X=X=X%X=X=X%X=X=X%X=X=X%X=X=X",
"=X*X*X=X=X&X=X*X*X=X=X%X=X=X%X=X=X%X=X=X3 X.X._ ).2.1.-.-.<.-.R.].|.L X.} X.X.X.{ O #X=XB &X=X*X*X=X%X*X=X&X&X=X&X*X=X&X%X=X*X%X",
"=X=X%X=X=X%X=X=X%X=X=X%X=X=X%X=X=X%X=X=X%X0 X.} |.3.1.<.>.<.:.)._.!.[ X.X.X.] 9 &X%X%X=X%X5 =X%X%X=X%X%X=X%X%X=X%X%X=X%X%X=X*X%X",
"%X*X=X%X%X=X*X%X=X%X%X=X%X&X=X%X%X=X*X%X=X%XO } |.2.1.1.1.,.(. X.X} [ X.X.R +.=X%X=X=X%X=X=X4 =X=X%X=X=X%X=X=X%X=X=X%X=X=X%X=X=X",
"%X*X=X%X%X=X%X%X=X%X%X=X%X%X=X%X%X=X%X%X=X%X%XP._.G.1.3.=.(.|._.T } X./ O %X=X=X%X=X=X%X=X=X%X=X=X%X=X=X%X=X=X%X=X=X%X=X=X%X=X=X",
"=X=X%X=X=X%X=X=X%X=X=X%X=X=X%X=X=X%X=X=X%X=X=X%X_._.}.|.`.[./.t X._ O %X%X=X%X%X=X%X%X=X%X%X=X%X%X=X%X%X=X%X%X=X%X%X=X%X%X=X&X%X",
"=X=X%X=X=X%X=X=X%X=X=X%X=X=X%X=X=X%X=X=X%X=X=X%X=X|.].|.|. Xt 9 2 %X=X%X%X=X%X%X=X%X%X=X%X%X=X%X%X=X%X%X=X%X%X=X%X%X=X%X%X=X&X%X",
"%X*X=X%X%X=X%X%X=X%X%X=X%X%X=X%X%X=X%X%X=X%X%X=X%XoXP.^.$.+ OX%X=X=X%X=X=X%X=X=X%X=X=X%X=X=X%X=X=X%X=X=X%X=X=X%X=X=X%X=X=X%X=X=X",
"%X%X=X%X%X=X%X%X=X%X%X=X%X%X=X%X%X=X%X%X=X%X%X=X%X%X=X%X%X=X*X%X=X=X%X=X=X%X=X=X%X=X=X%X=X=X%X=X=X%X=X=X%X=X=X%X=X=X%X=X=X%X*X=X",
"=X=X%X=X=X%X=X=X%X=X=X%X=X=X%X=X=X%X=X=X%X=X=X%X=X=X%X=X=X%X=X=X%X*X=X%X%X=X%X%X=X%X%X=X%X%X=X%X%X=X%X%X=X%X%X=X%X%X=X%X%X=X*X%X",
"=X=X%X=X=X%X=X=X%X=X=X%X=X=X%X=X=X%X=X=X%X=X=X%X=X=X%X=X=X%X=X=X%X%X=X%X%X=X%X%X=X%X%X=X%X%X=X%X%X=X%X%X=X%X%X=X%X%X=X%X%X=X*X%X"
};
