/* XPM */
static char *result[] = {
/* columns rows colors chars-per-pixel */
"64 64 145 2 ",
"   c #6C4C3E",
".  c #6B533E",
"X  c #695C3A",
"o  c #63762F",
"O  c #627A2D",
"+  c #666636",
"@  c #656C33",
"#  c #686138",
"$  c #647331",
"%  c #6D4B41",
"&  c #714E44",
"*  c #775147",
"=  c #7F5347",
"-  c #76574D",
";  c #7A5349",
":  c #815246",
">  c #825549",
",  c #84594E",
"<  c #865B50",
"1  c #866359",
"2  c #816C5B",
"3  c #8C6F67",
"4  c #936D63",
"5  c #967066",
"6  c #90766F",
"7  c #99756B",
"8  c #947C74",
"9  c #9E7B73",
"0  c #519307",
"q  c #579615",
"w  c #579618",
"e  c #5A971E",
"r  c #5B981E",
"t  c #5D8D26",
"y  c #5F8629",
"u  c #5F8828",
"i  c #5B9522",
"p  c #5B9821",
"a  c #60822B",
"s  c #619D23",
"d  c #659E2C",
"f  c #679F31",
"g  c #66A124",
"h  c #6BA524",
"j  c #6EA825",
"k  c #74AC26",
"l  c #76B027",
"z  c #79B127",
"x  c #7DB428",
"c  c #67A031",
"v  c #6AA133",
"b  c #6DA339",
"n  c #73A741",
"m  c #76A944",
"M  c #7AAB46",
"N  c #79AB4A",
"B  c #80B729",
"V  c #85BB2A",
"C  c #89BE2B",
"Z  c #8AC027",
"A  c #8BC02B",
"S  c #8EC131",
"D  c #91C334",
"F  c #94C53D",
"G  c #81AF54",
"H  c #83B154",
"J  c #86B35A",
"K  c #9E927D",
"L  c #A3827A",
"P  c #8BB662",
"I  c #8EB865",
"U  c #8DB768",
"Y  c #94BC70",
"T  c #98BD76",
"R  c #97C641",
"E  c #98C743",
"W  c #9CC94B",
"Q  c #A1CC4E",
"!  c #A0CB52",
"~  c #A4CD5A",
"^  c #A7CF60",
"/  c #ADD266",
"(  c #A0C37C",
")  c #B4D775",
"_  c #B7D87A",
"`  c #A08882",
"'  c #AA8C84",
"]  c #AD9089",
"[  c #B1958E",
"{  c #B69B94",
"}  c #ABB18D",
"|  c #BDA59F",
" . c #C7B4AF",
".. c #C3B4B1",
"X. c #CCBEBA",
"o. c #A5C684",
"O. c #ABCB8E",
"+. c #BBDA85",
"@. c #AFCD92",
"#. c #B6D19D",
"$. c #B8D29F",
"%. c #BBD5A3",
"&. c #BDD4A8",
"*. c #C3DE90",
"=. c #CAE29C",
"-. c #C1D9AB",
";. c #C6DCB0",
":. c #C9DDB5",
">. c #CEE4A6",
",. c #CEE3AC",
"<. c #D0E5A6",
"1. c #D3E7AC",
"2. c #CFE1BD",
"3. c #D6E9B4",
"4. c #DAEBBB",
"5. c #D2C7C3",
"6. c #D5CEC8",
"7. c #DDD4D1",
"8. c #E4DAD7",
"9. c #E3DCDA",
"0. c #D2E2C4",
"q. c #DEEDC2",
"w. c #DAE7CD",
"e. c #DCE9CD",
"r. c #DAE7D0",
"t. c #DEEAD2",
"y. c #E0EEC6",
"u. c #E4F0CF",
"i. c #E5EEDB",
"p. c #E8F2D6",
"a. c #E6F0DE",
"s. c #ECF5DF",
"d. c #EAE5E3",
"f. c #EEE9E7",
"g. c #EDE9E8",
"h. c #F0EDEC",
"j. c #EBF3E3",
"k. c #EEF5E9",
"l. c #F0F7E4",
"z. c #F1F6EC",
"x. c #F4F9EC",
"c. c #F6F2F2",
"v. c #F6F9F3",
"b. c #F9FBF6",
"n. c #FFFFFF",
/* pixels */
"n.n.n.n.n.n.n.n.n.n.n.n.n.n.n.n.n.n.n.n.n.n.n.n.n.n.n.n.n.n.n.n.n.n.n.n.n.n.n.n.n.n.n.n.n.n.n.n.n.n.n.n.n.n.n.n.n.n.n.n.n.n.n.n.",
"n.n.n.n.n.n.n.n.n.n.n.n.n.n.n.n.n.n.n.n.n.n.n.n.n.n.n.l.y.3.1.<.1.1.3.y.s.n.n.n.n.n.n.n.n.n.n.n.n.n.n.n.n.n.n.n.n.n.n.n.n.n.n.n.",
"n.n.n.n.n.n.n.n.n.n.n.n.n.n.n.n.n.n.n.n.n.n.n.n.b.<.) ^ R S Z A Z A A E ~ ) *.s.n.n.n.n.n.n.n.n.n.n.n.n.n.n.n.n.n.n.n.n.n.n.n.n.",
"n.n.n.n.n.n.n.n.n.n.n.n.n.n.n.n.n.n.n.n.n.n.n.,.R D A A A A A A A A A A A A A F Q j.n.n.n.n.n.n.n.n.n.n.n.n.n.n.n.n.n.n.n.n.n.n.",
"n.n.n.n.n.n.n.n.n.n.n.n.n.n.n.n.n.n.n.n.n.j./ A A A A A A A A A A A A A A A A A A A =.x.n.n.n.n.n.n.n.n.n.n.n.n.n.n.n.n.n.n.n.n.",
"n.n.n.n.n.n.n.n.n.n.n.n.n.n.n.n.n.n.n.n.1.R A A A A A A A A A A A A A A A A A A A A A ! q.n.n.n.n.n.n.n.n.n.n.n.n.n.n.n.n.n.n.n.",
"n.n.n.n.n.n.n.n.n.n.n.n.n.n.n.n.n.n.n.=.D A A A A A A A A A A A A A A A A A A A A A A A F 1.n.n.n.n.n.n.n.n.n.n.n.n.n.n.n.n.n.n.",
"n.n.n.n.n.n.n.n.n.n.n.n.n.n.n.n.n.n.<.D A A A A A A A A A A A A A A A A A A A A A A A A A D 4.n.n.n.n.n.n.n.n.n.n.n.n.n.n.n.n.n.",
"n.n.n.n.n.n.n.n.n.n.n.n.n.n.n.n.n.s.~ A A A A A A A A A A A A A A A A A A A A A A A A A A A S s.n.n.n.n.n.n.n.n.n.n.n.n.n.n.n.n.",
"n.n.n.n.n.n.n.n.n.n.n.n.n.n.n.n.v.o.z A A A A A A A A A A A A A A A A A A A A A A A A A A A A _ n.n.n.n.n.n.n.n.n.n.n.n.n.n.n.n.",
"n.n.n.n.n.n.n.n.n.n.n.n.n.n.n.n.a.d k C A A A A A A A A A A A A A A A A A A A A A A A A A A A A >.n.n.n.n.n.n.n.n.n.n.n.n.n.n.n.",
"n.n.n.n.n.n.n.n.n.n.n.n.n.n.n.n.P p p C A A A A A A A A A A A A A A A A A A A A A A A A A A A A W b.n.n.n.n.n.n.n.n.n.n.n.n.n.n.",
"n.n.n.n.n.n.n.n.n.n.n.n.z.j.e.@.p p p V A A A A A A A A A A A A A A A A A A A A A A A A A A A A A =.n.n.n.n.n.n.n.n.n.n.n.n.n.n.",
"n.n.n.n.n.n.n.n.n.n.a.;.G r i i p p p p C A A A A A A A A A A A A A A A A A A A A A A A A A A A A ~ u.n.n.n.n.n.n.n.n.n.n.n.n.n.",
"n.n.n.n.n.n.n.n.n.0.N p p p e p p p p p j A A A A A A A A A A A A A A A A A A A A A A A A A A A A A W +.n.n.n.n.n.n.n.n.n.n.n.n.",
"n.n.n.n.n.n.n.n.0.d p p x x p p p p p p p j A A A A A A A A A A A A A A A A A A A A A A A C k p C A A A ! p.n.n.n.n.n.n.n.n.n.n.",
"n.n.n.n.n.n.n.w.p p g C A A z s p p p p p p k A A A A A A A A A A A A A A A A A A A A A A x p p j A A A A R 3.n.n.n.n.n.n.n.n.n.",
"n.n.n.n.n.n.t.d p g x A A A A C h g p p p p p l A A A A A A A A A A A A A A A A A A A A A z p p s A A A A A S 4.n.n.n.n.n.n.n.n.",
"n.n.n.n.n.v.Y p p x A A A A A A C x l h s r s z A A A A A A A A A A A A A A A A A A A A A h p p s A A A A A C E x.n.n.n.n.n.n.n.",
"n.n.n.n.n.2.v p s A A A A A A A A A A C C V C C A A A A A A A A A A A A A A A A A A A A C p p p s A A A A A A A Q n.n.n.n.n.n.n.",
"n.n.n.n.n.$.p p C A A A A A A A A A A A C A A A A A A A A A A A A A A A A A A A A A A C g p p p k A A A A A A A D 0.n.n.n.n.n.n.",
"n.n.n.n.k.b p p A A A A A A A A A A A A C A A A A A A A A A A A A A A A A A A A A A A k p p p p V A A A A A A A V P v.n.n.n.n.n.",
"n.n.n.n.j.p p p A A A A A A A A A A A A A A A A A A A A A A A A A A A A A A A A A A l p p p p p A A A A A A A A z b 0.n.n.n.n.n.",
"n.n.n.n.j.r p p A A A A A A A A A A A A A A A A A A A A A A A A A A A A A A A A A x p p p p p x A A A A A A A A s p -.n.n.n.n.n.",
"n.n.n.n.j.e p p A A A A A A A A A V k x V C A A A A A A A A A A A A A A A A A A x p p p p p p C A A A A A A A A p p %.n.n.n.n.n.",
"n.n.n.n.j.r p p V A A A A A A A A l p p s z V A A A A A A A A A A A A A A A B k p p p p p p x A A A A A A A A h p p U x.n.n.n.n.",
"n.n.n.n.j.p p p g C A A A A A A A z p p p p g k C A A A A A A A A A A A k h s p i p p p p j C A A A A A A A x p p p n k.n.n.n.n.",
"n.n.n.n.j.d p p s C A A A A A A A C h p p p p p s s h z x V V x l h s s p p p p p p p p h A A A A A A A C C g p p p m z.n.n.n.n.",
"n.n.n.n.v.T p p p h C A A A A A A A A k s p p p p p p p p p p p p p p p p p p p p p p h A A A A A A A A C h p p p p U v.n.n.n.n.",
"n.n.n.n.n.;.p p p s x A A A A A A A A A C h s p p i p p p p p p i p p p p p p p r s l C A A A A A A A z h p p p p i #.n.n.n.n.n.",
"n.n.n.n.n.j.J i p p s l A A A A A A A A C C k p p p p p p r p p p p p p p p p p p l A A A A A A A V j p p i p p p r -.n.n.n.n.n.",
"n.n.n.n.n.n.-.d p p p p h A A A A A A A A A A g p p p p p i p p p p p p p p p p p k A A A A V k s p p p p p p p p c 2.n.n.n.n.n.",
"n.n.n.n.n.n.n.H p p p p p s x V C A A C A A C g p p p p p p p p p p i p i i p p p p i i i e i p p p p p p p p p p U z.n.n.n.n.n.",
"n.n.n.n.n.n.n.n.i p p p p p p p k z z V V x k p p i p p p p p p a u a O O O p p p p p i p p p p p p p p p p p p p O.n.n.n.n.n.n.",
"n.n.n.n.n.n.n.n.q p p p p p p i p p p g g s y $ p p p p p p p i . X . % % @ p p p e p p p p p p p p p p p p p p v k.n.n.n.n.n.n.",
"n.n.n.n.n.n.n.n.0 p p p p p p p p p p u # . . % + p p p p p p u % % % % % o p p p p p p p p p p p p p p p p p p %.n.n.n.n.n.n.n.",
"n.n.n.n.n.n.n.n.:.p p p p p p p p p p p + % % %   $ i i p p p $ % % % % . u p i p p p p p p p p p p p p p p p d n.n.n.n.n.n.n.n.",
"n.n.n.n.n.n.n.n.j.p p p p p p p p p p p i # % % % . $ i p p p + % % % % . p p p p p p p p p p p p e p p p p N k.n.n.n.n.n.n.n.n.",
"n.n.n.n.n.n.n.n.v.( p p p p p p p p i r p t X % % % & O p p p X % % % % . p p r p p p p p p p p p p p e e n 0.b.n.n.n.n.n.n.n.n.",
"n.n.n.n.n.n.n.n.n.k.J p p p p i p p p p p p t . % % % . $ p p . % % % % X p p p p p p p p p p p p p p i d 0.v.n.n.n.n.n.n.n.n.n.",
"n.n.n.n.n.n.n.n.n.n.t.m e p p p p p p p p p p t   % % %   O i . % % % % $ p p p p p p p p p p p r i d v k.n.n.n.n.n.n.n.n.n.n.n.",
"n.n.n.n.n.n.n.n.n.n.n.i.I p p p p p p i p p p p a . % % % . + % % % % % O p p p p p p p p p p p p H @.v.n.n.n.n.n.n.n.n.n.n.n.n.",
"n.n.n.n.n.n.n.n.n.n.n.n.v.@.b p p p p p p p p p i $ % % % % % % % % % % } Y r @ @ $ @ + p q N #.;.j.n.n.n.n.n.n.n.n.n.n.n.n.n.n.",
"n.n.n.n.n.n.n.n.n.n.n.n.n.b.j.o.w p p p p p p p p i + % % % % % & ; % % 7.v.K % % % % 6.j.j.k.n.n.n.n.n.n.n.n.n.n.n.n.n.n.n.n.n.",
"n.n.n.n.n.n.n.n.n.n.n.n.n.n.n.n.b.&.M v v f f f b v H 2 % % ; , < < < , d.X.- % % & ..n.n.n.n.n.n.n.n.n.n.n.n.n.n.n.n.n.n.n.n.n.",
"n.n.n.n.n.n.n.n.n.n.n.n.n.n.n.n.n.n.n.n.k.r.0.t.z.n.n.g.& = < < < < < < 5.3 % % % 8 d.n.n.n.n.n.n.n.n.n.n.n.n.n.n.n.n.n.n.n.n.n.",
"n.n.n.n.n.n.n.n.n.n.n.n.n.n.n.n.n.n.n.n.n.n.n.n.n.n.n.n.= < < < < < < < 3 % % % - 9.n.n.n.n.n.n.n.n.n.n.n.n.n.n.n.n.n.n.n.n.n.n.",
"n.n.n.n.n.n.n.n.n.n.n.n.n.n.n.n.n.n.n.n.n.n.n.n.n.n.n.n.> < < < < < < < * % % % 9.n.n.n.n.n.n.n.n.n.n.n.n.n.n.n.n.n.n.n.n.n.n.n.",
"n.n.n.n.n.n.n.n.n.n.n.n.n.n.n.n.n.n.n.n.n.n.n.n.n.n.n.n.: < < < < < < < ; % & ..n.n.n.n.n.n.n.n.n.n.n.n.n.n.n.n.n.n.n.n.n.n.n.n.",
"n.n.n.n.n.n.n.n.n.n.n.n.n.n.n.n.n.n.n.n.n.n.n.n.n.n.n.n.: < < < < < < < ; % ` v.n.n.n.n.n.n.n.n.n.n.n.n.n.n.n.n.n.n.n.n.n.n.n.n.",
"n.n.n.n.n.n.n.n.n.n.n.n.n.n.n.n.n.n.n.n.n.n.n.n.n.n.n.n.: , < < < < < < * 6 d.n.n.n.n.n.n.n.n.n.n.n.n.n.n.n.n.n.n.n.n.n.n.n.n.n.",
"n.n.n.n.n.n.n.n.n.n.n.n.n.n.n.n.n.n.n.n.n.n.n.n.n.n.n.n.: < < < < < < < 1 h.n.n.n.n.n.n.n.n.n.n.n.n.n.n.n.n.n.n.n.n.n.n.n.n.n.n.",
"n.n.n.n.n.n.n.n.n.n.n.n.n.n.n.n.n.n.n.n.n.n.n.n.n.n.n.n.: < < < < < < < { n.n.n.n.n.n.n.n.n.n.n.n.n.n.n.n.n.n.n.n.n.n.n.n.n.n.n.",
"n.n.n.n.n.n.n.n.n.n.n.n.n.n.n.n.n.n.n.n.n.n.n.n.n.n.n.n.> < < < < < < < { n.n.n.n.n.n.n.n.n.n.n.n.n.n.n.n.n.n.n.n.n.n.n.n.n.n.n.",
"n.n.n.n.n.n.n.n.n.n.n.n.n.n.n.n.n.n.n.n.n.n.n.n.n.n.n.n., < < < < < < < ' n.n.n.n.n.n.n.n.n.n.n.n.n.n.n.n.n.n.n.n.n.n.n.n.n.n.n.",
"n.n.n.n.n.n.n.n.n.n.n.n.n.n.n.n.n.n.n.n.n.n.n.n.n.n.n.b.< < < < < < < < 9 n.n.n.n.n.n.n.n.n.n.n.n.n.n.n.n.n.n.n.n.n.n.n.n.n.n.n.",
"n.n.n.n.n.n.n.n.n.n.n.n.n.n.n.n.n.n.n.n.n.n.n.n.n.n.n.7.< < < < < < < < 4 n.n.n.n.n.n.n.n.n.n.n.n.n.n.n.n.n.n.n.n.n.n.n.n.n.n.n.",
"n.n.n.n.n.n.n.n.n.n.n.n.n.n.n.n.n.n.n.n.n.n.n.n.n.n.n. .< < < < < < < < 4 n.n.n.n.n.n.n.n.n.n.n.n.n.n.n.n.n.n.n.n.n.n.n.n.n.n.n.",
"n.n.n.n.n.n.n.n.n.n.n.n.n.n.n.n.n.n.n.n.n.n.n.n.n.n.n.{ < < < < < < < < 4 n.n.n.n.n.n.n.n.n.n.n.n.n.n.n.n.n.n.n.n.n.n.n.n.n.n.n.",
"n.n.n.n.n.n.n.n.n.n.n.n.n.n.n.n.n.n.n.n.n.n.n.n.n.n.n.] < < < < < < < < 4 n.n.n.n.n.n.n.n.n.n.n.n.n.n.n.n.n.n.n.n.n.n.n.n.n.n.n.",
"n.n.n.n.n.n.n.n.n.n.n.n.n.n.n.n.n.n.n.n.n.n.n.n.n.n.n.| , , < < < < < , 5 n.n.n.n.n.n.n.n.n.n.n.n.n.n.n.n.n.n.n.n.n.n.n.n.n.n.n.",
"n.n.n.n.n.n.n.n.n.n.n.n.n.n.n.n.n.n.n.n.n.n.n.n.n.n.n.h.[ ' 9 7 7 7 L [ X.n.n.n.n.n.n.n.n.n.n.n.n.n.n.n.n.n.n.n.n.n.n.n.n.n.n.n.",
"n.n.n.n.n.n.n.n.n.n.n.n.n.n.n.n.n.n.n.n.n.n.n.n.n.n.n.n.n.c.d.9.8.9.f.n.n.n.n.n.n.n.n.n.n.n.n.n.n.n.n.n.n.n.n.n.n.n.n.n.n.n.n.n.",
"n.n.n.n.n.n.n.n.n.n.n.n.n.n.n.n.n.n.n.n.n.n.n.n.n.n.n.n.n.n.n.n.n.n.n.n.n.n.n.n.n.n.n.n.n.n.n.n.n.n.n.n.n.n.n.n.n.n.n.n.n.n.n.n."
};
